<svg width="383" height="52" viewBox="0 0 383 52" fill="none" xmlns="http://www.w3.org/2000/svg">
<mask id="path-1-inside-1_21_17" fill="white">
<path d="M32.344 38.09C32.344 38.5927 32.24 38.9567 32.032 39.182C31.8413 39.4073 31.5467 39.52 31.148 39.52C30.7667 39.52 30.3853 39.3813 30.004 39.104C29.6227 38.8267 29.25 38.506 28.886 38.142C28.522 37.778 28.1667 37.4573 27.82 37.18C27.4733 36.9027 27.1353 36.764 26.806 36.764C26.494 36.764 26.0953 36.9027 25.61 37.18C25.142 37.4573 24.5613 37.778 23.868 38.142C23.1747 38.4887 22.3253 38.8007 21.32 39.078C20.3147 39.3553 19.1187 39.494 17.732 39.494C14.9933 39.494 12.532 39.0433 10.348 38.142C8.164 37.2233 6.30067 35.932 4.758 34.268C3.21533 32.5867 2.03667 30.602 1.222 28.314C0.407333 26.0087 0 23.4693 0 20.696C0 17.888 0.450667 15.314 1.352 12.974C2.25333 10.6167 3.51867 8.58 5.148 6.864C6.79467 5.13067 8.72733 3.796 10.946 2.86C13.1647 1.90667 15.5913 1.43 18.226 1.43C19.994 1.43 21.4327 1.60333 22.542 1.95C23.6687 2.29667 24.5527 2.652 25.194 3.016C25.8527 3.36267 26.3467 3.536 26.676 3.536C27.0747 3.536 27.4213 3.38 27.716 3.068C28.028 2.73867 28.3313 2.418 28.626 2.106C28.938 1.794 29.2847 1.638 29.666 1.638C29.926 1.638 30.134 1.716 30.29 1.872C30.4633 2.028 30.602 2.314 30.706 2.73L33.254 12.246C33.3407 12.5753 33.306 12.87 33.15 13.13C32.994 13.3727 32.76 13.5287 32.448 13.598C32.136 13.6673 31.8413 13.6413 31.564 13.52C31.304 13.3813 31.096 13.1387 30.94 12.792C29.9693 10.5387 28.8687 8.74467 27.638 7.41C26.4073 6.07533 25.0727 5.122 23.634 4.55C22.1953 3.96067 20.6613 3.666 19.032 3.666C16.8653 3.666 14.9413 4.29 13.26 5.538C11.596 6.786 10.296 8.57133 9.36 10.894C8.424 13.2167 7.956 15.9987 7.956 19.24C7.956 22.9147 8.48467 26.0347 9.542 28.6C10.5993 31.148 12.0293 33.0893 13.832 34.424C15.652 35.7587 17.6973 36.426 19.968 36.426C20.7133 36.426 21.4067 36.348 22.048 36.192C22.6893 36.0187 23.244 35.7847 23.712 35.49C24.1973 35.178 24.57 34.8053 24.83 34.372C25.1073 33.9387 25.246 33.4447 25.246 32.89V25.714C25.246 25.35 25.142 25.0813 24.934 24.908C24.7433 24.7173 24.3707 24.5613 23.816 24.44L21.866 24.128C21.5193 24.0413 21.2507 23.9113 21.06 23.738C20.8693 23.5647 20.774 23.3567 20.774 23.114C20.774 22.8367 20.878 22.62 21.086 22.464C21.294 22.2907 21.6147 22.204 22.048 22.204H34.372C34.8227 22.204 35.152 22.2907 35.36 22.464C35.568 22.62 35.672 22.8367 35.672 23.114C35.672 23.3567 35.594 23.556 35.438 23.712C35.2993 23.8507 35.0653 23.972 34.736 24.076L33.592 24.362C33.1587 24.4833 32.838 24.648 32.63 24.856C32.4393 25.0467 32.344 25.3327 32.344 25.714V38.09Z"/>
<path d="M51.9764 13.858C54.5591 13.858 56.8298 14.3953 58.7884 15.47C60.7644 16.5447 62.3071 18.044 63.4164 19.968C64.5258 21.8747 65.0804 24.0933 65.0804 26.624C65.0804 29.0333 64.5084 31.1913 63.3644 33.098C62.2378 35.0047 60.6691 36.5127 58.6584 37.622C56.6651 38.714 54.3511 39.26 51.7164 39.26C49.1338 39.26 46.8544 38.7227 44.8784 37.648C42.9198 36.556 41.3858 35.0567 40.2764 33.15C39.1844 31.226 38.6384 29.016 38.6384 26.52C38.6384 24.076 39.2018 21.9007 40.3284 19.994C41.4724 18.0873 43.0411 16.588 45.0344 15.496C47.0451 14.404 49.3591 13.858 51.9764 13.858ZM53.6924 37.076C54.8538 36.9027 55.7898 36.3653 56.5004 35.464C57.2111 34.5453 57.6618 33.2713 57.8524 31.642C58.0604 30.0127 57.9738 28.0367 57.5924 25.714C57.2111 23.4087 56.6564 21.5107 55.9284 20.02C55.2004 18.5293 54.3338 17.446 53.3284 16.77C52.3231 16.094 51.2224 15.8513 50.0264 16.042C48.8651 16.2153 47.9291 16.7613 47.2184 17.68C46.5078 18.5987 46.0571 19.8727 45.8664 21.502C45.6758 23.114 45.7624 25.0727 46.1264 27.378C46.5078 29.666 47.0624 31.564 47.7904 33.072C48.5358 34.5627 49.4111 35.646 50.4164 36.322C51.4218 36.998 52.5138 37.2493 53.6924 37.076Z"/>
<path d="M90.478 9.62L92.714 10.218L85.278 34.45C85.174 34.762 85.0873 35.074 85.018 35.386C84.966 35.6807 84.94 36.0273 84.94 36.426V37.57C84.94 37.9167 84.8446 38.1853 84.654 38.376C84.4806 38.5493 84.238 38.636 83.926 38.636H77.738C77.4086 38.636 77.1486 38.5493 76.958 38.376C76.7846 38.1853 76.698 37.9167 76.698 37.57V36.426C76.698 36.1487 76.672 35.906 76.62 35.698C76.568 35.49 76.4813 35.1693 76.36 34.736L67.962 5.954C67.8233 5.50333 67.6586 5.18267 67.468 4.992C67.2946 4.784 67.0346 4.61933 66.688 4.498L65.466 4.134C65.1713 4.03 64.9633 3.9 64.842 3.744C64.738 3.57067 64.686 3.38 64.686 3.172C64.686 2.87733 64.79 2.652 64.998 2.496C65.206 2.32267 65.518 2.236 65.934 2.236H78.102C78.5353 2.236 78.8473 2.32267 79.038 2.496C79.246 2.652 79.35 2.87733 79.35 3.172C79.35 3.64 79.09 3.94333 78.57 4.082L76.75 4.394C76.3686 4.48067 76.1346 4.68 76.048 4.992C75.9786 5.28667 76.0306 5.72867 76.204 6.318L84.342 34.736L82.158 36.478L90.478 9.62ZM107.144 3.198C107.144 2.886 107.248 2.652 107.456 2.496C107.664 2.32267 107.976 2.236 108.392 2.236H116.322C116.773 2.236 117.093 2.32267 117.284 2.496C117.492 2.66933 117.596 2.90333 117.596 3.198C117.596 3.406 117.527 3.588 117.388 3.744C117.267 3.88267 117.033 4.02133 116.686 4.16L115.75 4.498C115.178 4.74067 114.684 5.11333 114.268 5.616C113.869 6.11867 113.54 6.85533 113.28 7.826L105.922 34.45C105.801 34.8833 105.714 35.2387 105.662 35.516C105.61 35.776 105.584 36.0793 105.584 36.426V37.57C105.584 37.9167 105.489 38.1853 105.298 38.376C105.125 38.5493 104.882 38.636 104.57 38.636H98.174C97.8793 38.636 97.6366 38.5493 97.446 38.376C97.2553 38.1853 97.16 37.9167 97.16 37.57V36.426C97.16 36.166 97.1426 35.9233 97.108 35.698C97.0906 35.4727 97.0126 35.1433 96.874 34.71L88.762 5.954C88.5886 5.39933 88.4326 5.02667 88.294 4.836C88.1553 4.64533 87.9473 4.50667 87.67 4.42L86.448 4.082C86.1533 3.978 85.9453 3.85667 85.824 3.718C85.7026 3.57933 85.642 3.406 85.642 3.198C85.642 2.886 85.746 2.652 85.954 2.496C86.1793 2.32267 86.4913 2.236 86.89 2.236H98.824C99.24 2.236 99.552 2.32267 99.76 2.496C99.968 2.652 100.072 2.886 100.072 3.198C100.072 3.42333 99.994 3.614 99.838 3.77C99.6993 3.926 99.4826 4.04733 99.188 4.134L97.498 4.446C97.1166 4.53267 96.8826 4.706 96.796 4.966C96.7266 5.226 96.7786 5.67667 96.952 6.318L104.83 34.762L102.906 36.348L110.862 7.592C111.105 6.74267 111.105 6.06667 110.862 5.564C110.637 5.044 110.091 4.654 109.224 4.394L107.924 4.108C107.647 4.004 107.447 3.88267 107.326 3.744C107.205 3.60533 107.144 3.42333 107.144 3.198Z"/>
<path d="M131.827 35.542V35.074L131.385 35.048V19.24C131.385 18.0093 131.082 17.0647 130.475 16.406C129.886 15.73 129.045 15.392 127.953 15.392C126.913 15.392 126.116 15.626 125.561 16.094C125.024 16.562 124.755 17.1167 124.755 17.758V20.02C124.755 21.008 124.417 21.788 123.741 22.36C123.065 22.932 122.138 23.218 120.959 23.218C119.971 23.218 119.209 22.9753 118.671 22.49C118.151 22.0047 117.891 21.32 117.891 20.436C117.891 19.396 118.316 18.3733 119.165 17.368C120.032 16.3453 121.297 15.5047 122.961 14.846C124.643 14.1873 126.714 13.858 129.175 13.858C132.278 13.858 134.583 14.4993 136.091 15.782C137.617 17.0473 138.379 18.772 138.379 20.956V34.476C138.379 34.996 138.483 35.3773 138.691 35.62C138.899 35.8627 139.177 35.984 139.523 35.984C139.887 35.984 140.165 35.8973 140.355 35.724C140.563 35.5333 140.728 35.3167 140.849 35.074C140.936 34.97 141.014 34.8833 141.083 34.814C141.17 34.7447 141.274 34.71 141.395 34.71C141.569 34.71 141.699 34.7793 141.785 34.918C141.872 35.0393 141.915 35.204 141.915 35.412C141.915 35.932 141.725 36.4867 141.343 37.076C140.962 37.6653 140.381 38.1767 139.601 38.61C138.821 39.026 137.842 39.234 136.663 39.234C135.155 39.234 133.968 38.9047 133.101 38.246C132.252 37.57 131.827 36.6687 131.827 35.542ZM116.747 33.28C116.747 31.1827 117.666 29.4927 119.503 28.21C121.358 26.9273 124.01 26.286 127.459 26.286C128.569 26.286 129.548 26.3813 130.397 26.572C131.264 26.7627 132.018 27.014 132.659 27.326L132.165 28.652C131.576 28.3747 130.969 28.158 130.345 28.002C129.739 27.846 129.071 27.768 128.343 27.768C126.957 27.768 125.865 28.158 125.067 28.938C124.287 29.7007 123.897 30.7667 123.897 32.136C123.897 33.488 124.235 34.5193 124.911 35.23C125.605 35.9407 126.497 36.296 127.589 36.296C128.473 36.296 129.323 36.0967 130.137 35.698C130.969 35.282 131.663 34.71 132.217 33.982L132.737 35.178C131.819 36.478 130.588 37.4833 129.045 38.194C127.52 38.8873 125.882 39.234 124.131 39.234C121.947 39.234 120.171 38.688 118.801 37.596C117.432 36.4867 116.747 35.048 116.747 33.28Z"/>
<path d="M154.324 1.326V35.1C154.324 35.568 154.394 35.9147 154.532 36.14C154.671 36.3653 154.879 36.5213 155.156 36.608L156.248 36.868C156.526 36.9547 156.725 37.076 156.846 37.232C156.985 37.3707 157.054 37.5527 157.054 37.778C157.054 38.038 156.959 38.246 156.768 38.402C156.595 38.558 156.309 38.636 155.91 38.636H145.614C145.233 38.636 144.947 38.558 144.756 38.402C144.583 38.246 144.496 38.038 144.496 37.778C144.496 37.57 144.557 37.388 144.678 37.232C144.817 37.076 145.025 36.9547 145.302 36.868L146.394 36.608C146.689 36.5213 146.906 36.3653 147.044 36.14C147.183 35.9147 147.252 35.5767 147.252 35.126V5.304C147.252 4.94 147.192 4.68 147.07 4.524C146.966 4.35067 146.784 4.24667 146.524 4.212L145.094 4.134C144.817 4.082 144.618 3.99533 144.496 3.874C144.392 3.73533 144.34 3.562 144.34 3.354C144.34 3.12867 144.41 2.94667 144.548 2.808C144.687 2.652 144.947 2.51333 145.328 2.392L150.762 0.546001C151.334 0.337999 151.776 0.199332 152.088 0.13C152.418 0.0433333 152.695 0 152.92 0C153.388 0 153.735 0.121333 153.96 0.363998C154.203 0.606666 154.324 0.927333 154.324 1.326Z"/>
<path d="M161.836 38.636C161.454 38.636 161.177 38.558 161.004 38.402C160.848 38.246 160.77 38.038 160.77 37.778C160.77 37.57 160.83 37.388 160.952 37.232C161.09 37.076 161.298 36.9547 161.576 36.868L162.694 36.608C162.988 36.5213 163.205 36.3653 163.344 36.14C163.482 35.9147 163.552 35.5767 163.552 35.126V5.304C163.552 4.94 163.491 4.68 163.37 4.524C163.248 4.35067 163.066 4.24667 162.824 4.212L161.368 4.134C161.108 4.082 160.917 3.99533 160.796 3.874C160.692 3.73533 160.64 3.562 160.64 3.354C160.64 3.12867 160.709 2.94667 160.848 2.808C160.986 2.652 161.238 2.51333 161.602 2.392L167.062 0.546001C167.599 0.355333 168.024 0.216666 168.336 0.13C168.665 0.0433333 168.977 0 169.272 0C169.705 0 170.034 0.121333 170.26 0.363998C170.485 0.606666 170.598 0.927333 170.598 1.326V35.1C170.598 35.568 170.667 35.9147 170.806 36.14C170.944 36.3653 171.161 36.5213 171.456 36.608L172.522 36.868C172.972 37.0587 173.198 37.3447 173.198 37.726C173.198 38.3327 172.816 38.636 172.054 38.636H161.836ZM168.674 27.95L179.204 18.928C179.845 18.3733 180.122 17.862 180.036 17.394C179.949 16.9087 179.524 16.5707 178.762 16.38L177.826 16.146C177.548 16.0593 177.358 15.9553 177.254 15.834C177.167 15.6953 177.124 15.522 177.124 15.314C177.124 15.0367 177.219 14.82 177.41 14.664C177.618 14.508 177.886 14.43 178.216 14.43H187.368C187.714 14.43 187.983 14.508 188.174 14.664C188.382 14.82 188.486 15.028 188.486 15.288C188.486 15.5307 188.399 15.7387 188.226 15.912C188.052 16.0853 187.706 16.2327 187.186 16.354C186.198 16.562 185.305 16.8827 184.508 17.316C183.728 17.7493 182.818 18.408 181.778 19.292L169.376 29.718L168.674 27.95ZM177.436 21.424L186.484 35.048C186.865 35.6027 187.203 35.9927 187.498 36.218C187.81 36.426 188.234 36.6167 188.772 36.79C189.066 36.9287 189.283 37.0847 189.422 37.258C189.578 37.4313 189.656 37.622 189.656 37.83C189.656 38.0727 189.56 38.272 189.37 38.428C189.179 38.5667 188.91 38.636 188.564 38.636H177.8C177.505 38.636 177.262 38.558 177.072 38.402C176.898 38.246 176.812 38.038 176.812 37.778C176.812 37.6047 176.855 37.4573 176.942 37.336C177.046 37.1973 177.219 37.0847 177.462 36.998L178.372 36.764C178.84 36.66 179.1 36.4693 179.152 36.192C179.204 35.9147 179.022 35.4727 178.606 34.866L172.652 25.766L177.436 21.424Z"/>
<path d="M197.428 2.236H216.746C217.318 2.236 217.794 2.158 218.176 2.002C218.574 1.846 218.921 1.69867 219.216 1.56C219.528 1.404 219.84 1.326 220.152 1.326C220.602 1.326 220.94 1.43867 221.166 1.664C221.408 1.88933 221.599 2.288 221.738 2.86L223.454 11.622C223.54 12.0207 223.514 12.35 223.376 12.61C223.254 12.87 223.02 13.026 222.674 13.078C222.362 13.1473 222.084 13.1213 221.842 13C221.599 12.8787 221.391 12.6447 221.218 12.298C220.264 10.0967 219.432 8.44133 218.722 7.332C218.011 6.20533 217.3 5.44267 216.59 5.044C215.896 4.64533 215.099 4.446 214.198 4.446H211.052V34.97C211.052 35.3167 211.156 35.594 211.364 35.802C211.572 36.01 211.875 36.1747 212.274 36.296L213.886 36.608C214.492 36.7987 214.796 37.154 214.796 37.674C214.796 38.3153 214.38 38.636 213.548 38.636H200.652C200.236 38.636 199.924 38.5493 199.716 38.376C199.508 38.2027 199.404 37.9687 199.404 37.674C199.404 37.154 199.707 36.7987 200.314 36.608L201.952 36.296C202.35 36.1747 202.654 36.01 202.862 35.802C203.07 35.594 203.174 35.3167 203.174 34.97V4.446H200.002C199.118 4.446 198.329 4.654 197.636 5.07C196.942 5.486 196.232 6.25733 195.504 7.384C194.793 8.49333 193.952 10.1313 192.982 12.298C192.826 12.6447 192.618 12.8787 192.358 13C192.115 13.1213 191.838 13.1473 191.526 13.078C191.196 13.026 190.962 12.87 190.824 12.61C190.702 12.35 190.676 12.0207 190.746 11.622L192.462 2.86C192.6 2.288 192.791 1.88933 193.034 1.664C193.276 1.43867 193.614 1.326 194.048 1.326C194.36 1.326 194.663 1.404 194.958 1.56C195.252 1.69867 195.59 1.846 195.972 2.002C196.353 2.158 196.838 2.236 197.428 2.236Z"/>
<path d="M236.359 1.326V35.1C236.359 35.568 236.429 35.9147 236.568 36.14C236.706 36.3653 236.923 36.5213 237.217 36.608L238.284 36.868C238.734 37.0587 238.96 37.3447 238.96 37.726C238.96 38.3327 238.578 38.636 237.816 38.636H227.676C227.277 38.636 226.982 38.558 226.792 38.402C226.618 38.246 226.531 38.038 226.531 37.778C226.531 37.57 226.592 37.388 226.714 37.232C226.852 37.076 227.06 36.9547 227.337 36.868L228.456 36.608C228.75 36.5213 228.967 36.3653 229.105 36.14C229.244 35.9147 229.314 35.5767 229.314 35.126V5.304C229.314 4.94 229.253 4.68 229.132 4.524C229.01 4.35067 228.828 4.24667 228.585 4.212L227.13 4.134C226.87 4.082 226.679 3.99533 226.557 3.874C226.453 3.73533 226.402 3.562 226.402 3.354C226.402 3.12867 226.471 2.94667 226.609 2.808C226.748 2.652 226.999 2.51333 227.363 2.392L232.824 0.546001C233.361 0.355333 233.786 0.216666 234.098 0.13C234.427 0.0433333 234.739 0 235.033 0C235.467 0 235.796 0.121333 236.021 0.363998C236.247 0.606666 236.359 0.927333 236.359 1.326ZM235.632 20.93L234.669 19.942L235.658 19.058C237.72 17.186 239.497 15.8513 240.988 15.054C242.478 14.2567 243.891 13.858 245.225 13.858C247.236 13.858 248.796 14.5253 249.906 15.86C251.015 17.1773 251.7 18.9887 251.96 21.294L253.52 35.022C253.572 35.5073 253.658 35.8713 253.779 36.114C253.918 36.3567 254.144 36.53 254.456 36.634L255.469 36.868C255.747 36.972 255.946 37.102 256.068 37.258C256.189 37.3967 256.25 37.57 256.25 37.778C256.25 38.038 256.163 38.246 255.99 38.402C255.816 38.558 255.53 38.636 255.132 38.636H244.861C244.081 38.636 243.691 38.3327 243.691 37.726C243.691 37.3447 243.926 37.0587 244.394 36.868L245.486 36.608C245.815 36.5213 246.058 36.3567 246.214 36.114C246.37 35.8713 246.422 35.5073 246.37 35.022L244.939 22.282C244.766 20.7913 244.394 19.682 243.822 18.954C243.25 18.2087 242.4 17.836 241.273 17.836C240.563 17.836 239.826 18.0267 239.064 18.408C238.301 18.772 237.495 19.318 236.646 20.046L235.632 20.93Z"/>
<path d="M281.462 23.712C281.462 24.4573 281.245 25.0293 280.812 25.428C280.396 25.8267 279.78 26.026 278.966 26.026H262.768V24.414H273.272C274.017 24.414 274.39 24.0673 274.39 23.374C274.39 20.8953 273.974 19.032 273.142 17.784C272.31 16.536 271.218 15.912 269.866 15.912C268.808 15.912 267.881 16.2413 267.084 16.9C266.286 17.5587 265.662 18.5207 265.212 19.786C264.761 21.034 264.536 22.568 264.536 24.388C264.536 27.7853 265.307 30.342 266.85 32.058C268.41 33.7567 270.472 34.606 273.038 34.606C274.632 34.606 276.01 34.2593 277.172 33.566C278.35 32.8553 279.208 31.876 279.746 30.628C279.971 30.3507 280.153 30.16 280.292 30.056C280.448 29.952 280.604 29.9 280.76 29.9C280.985 29.9 281.15 30.004 281.254 30.212C281.358 30.4027 281.401 30.6453 281.384 30.94C281.314 32.448 280.803 33.8347 279.85 35.1C278.914 36.3653 277.64 37.3793 276.028 38.142C274.416 38.8873 272.578 39.26 270.516 39.26C268.089 39.26 265.94 38.7573 264.068 37.752C262.213 36.7293 260.757 35.308 259.7 33.488C258.642 31.6507 258.114 29.51 258.114 27.066C258.114 24.466 258.625 22.178 259.648 20.202C260.67 18.2087 262.126 16.6487 264.016 15.522C265.922 14.3953 268.184 13.832 270.802 13.832C273.02 13.832 274.927 14.2567 276.522 15.106C278.116 15.9553 279.338 17.1253 280.188 18.616C281.037 20.0893 281.462 21.788 281.462 23.712Z"/>
</mask>
<path d="M32.344 38.09C32.344 38.5927 32.24 38.9567 32.032 39.182C31.8413 39.4073 31.5467 39.52 31.148 39.52C30.7667 39.52 30.3853 39.3813 30.004 39.104C29.6227 38.8267 29.25 38.506 28.886 38.142C28.522 37.778 28.1667 37.4573 27.82 37.18C27.4733 36.9027 27.1353 36.764 26.806 36.764C26.494 36.764 26.0953 36.9027 25.61 37.18C25.142 37.4573 24.5613 37.778 23.868 38.142C23.1747 38.4887 22.3253 38.8007 21.32 39.078C20.3147 39.3553 19.1187 39.494 17.732 39.494C14.9933 39.494 12.532 39.0433 10.348 38.142C8.164 37.2233 6.30067 35.932 4.758 34.268C3.21533 32.5867 2.03667 30.602 1.222 28.314C0.407333 26.0087 0 23.4693 0 20.696C0 17.888 0.450667 15.314 1.352 12.974C2.25333 10.6167 3.51867 8.58 5.148 6.864C6.79467 5.13067 8.72733 3.796 10.946 2.86C13.1647 1.90667 15.5913 1.43 18.226 1.43C19.994 1.43 21.4327 1.60333 22.542 1.95C23.6687 2.29667 24.5527 2.652 25.194 3.016C25.8527 3.36267 26.3467 3.536 26.676 3.536C27.0747 3.536 27.4213 3.38 27.716 3.068C28.028 2.73867 28.3313 2.418 28.626 2.106C28.938 1.794 29.2847 1.638 29.666 1.638C29.926 1.638 30.134 1.716 30.29 1.872C30.4633 2.028 30.602 2.314 30.706 2.73L33.254 12.246C33.3407 12.5753 33.306 12.87 33.15 13.13C32.994 13.3727 32.76 13.5287 32.448 13.598C32.136 13.6673 31.8413 13.6413 31.564 13.52C31.304 13.3813 31.096 13.1387 30.94 12.792C29.9693 10.5387 28.8687 8.74467 27.638 7.41C26.4073 6.07533 25.0727 5.122 23.634 4.55C22.1953 3.96067 20.6613 3.666 19.032 3.666C16.8653 3.666 14.9413 4.29 13.26 5.538C11.596 6.786 10.296 8.57133 9.36 10.894C8.424 13.2167 7.956 15.9987 7.956 19.24C7.956 22.9147 8.48467 26.0347 9.542 28.6C10.5993 31.148 12.0293 33.0893 13.832 34.424C15.652 35.7587 17.6973 36.426 19.968 36.426C20.7133 36.426 21.4067 36.348 22.048 36.192C22.6893 36.0187 23.244 35.7847 23.712 35.49C24.1973 35.178 24.57 34.8053 24.83 34.372C25.1073 33.9387 25.246 33.4447 25.246 32.89V25.714C25.246 25.35 25.142 25.0813 24.934 24.908C24.7433 24.7173 24.3707 24.5613 23.816 24.44L21.866 24.128C21.5193 24.0413 21.2507 23.9113 21.06 23.738C20.8693 23.5647 20.774 23.3567 20.774 23.114C20.774 22.8367 20.878 22.62 21.086 22.464C21.294 22.2907 21.6147 22.204 22.048 22.204H34.372C34.8227 22.204 35.152 22.2907 35.36 22.464C35.568 22.62 35.672 22.8367 35.672 23.114C35.672 23.3567 35.594 23.556 35.438 23.712C35.2993 23.8507 35.0653 23.972 34.736 24.076L33.592 24.362C33.1587 24.4833 32.838 24.648 32.63 24.856C32.4393 25.0467 32.344 25.3327 32.344 25.714V38.09Z" fill="#07452F"/>
<path d="M51.9764 13.858C54.5591 13.858 56.8298 14.3953 58.7884 15.47C60.7644 16.5447 62.3071 18.044 63.4164 19.968C64.5258 21.8747 65.0804 24.0933 65.0804 26.624C65.0804 29.0333 64.5084 31.1913 63.3644 33.098C62.2378 35.0047 60.6691 36.5127 58.6584 37.622C56.6651 38.714 54.3511 39.26 51.7164 39.26C49.1338 39.26 46.8544 38.7227 44.8784 37.648C42.9198 36.556 41.3858 35.0567 40.2764 33.15C39.1844 31.226 38.6384 29.016 38.6384 26.52C38.6384 24.076 39.2018 21.9007 40.3284 19.994C41.4724 18.0873 43.0411 16.588 45.0344 15.496C47.0451 14.404 49.3591 13.858 51.9764 13.858ZM53.6924 37.076C54.8538 36.9027 55.7898 36.3653 56.5004 35.464C57.2111 34.5453 57.6618 33.2713 57.8524 31.642C58.0604 30.0127 57.9738 28.0367 57.5924 25.714C57.2111 23.4087 56.6564 21.5107 55.9284 20.02C55.2004 18.5293 54.3338 17.446 53.3284 16.77C52.3231 16.094 51.2224 15.8513 50.0264 16.042C48.8651 16.2153 47.9291 16.7613 47.2184 17.68C46.5078 18.5987 46.0571 19.8727 45.8664 21.502C45.6758 23.114 45.7624 25.0727 46.1264 27.378C46.5078 29.666 47.0624 31.564 47.7904 33.072C48.5358 34.5627 49.4111 35.646 50.4164 36.322C51.4218 36.998 52.5138 37.2493 53.6924 37.076Z" fill="#07452F"/>
<path d="M90.478 9.62L92.714 10.218L85.278 34.45C85.174 34.762 85.0873 35.074 85.018 35.386C84.966 35.6807 84.94 36.0273 84.94 36.426V37.57C84.94 37.9167 84.8446 38.1853 84.654 38.376C84.4806 38.5493 84.238 38.636 83.926 38.636H77.738C77.4086 38.636 77.1486 38.5493 76.958 38.376C76.7846 38.1853 76.698 37.9167 76.698 37.57V36.426C76.698 36.1487 76.672 35.906 76.62 35.698C76.568 35.49 76.4813 35.1693 76.36 34.736L67.962 5.954C67.8233 5.50333 67.6586 5.18267 67.468 4.992C67.2946 4.784 67.0346 4.61933 66.688 4.498L65.466 4.134C65.1713 4.03 64.9633 3.9 64.842 3.744C64.738 3.57067 64.686 3.38 64.686 3.172C64.686 2.87733 64.79 2.652 64.998 2.496C65.206 2.32267 65.518 2.236 65.934 2.236H78.102C78.5353 2.236 78.8473 2.32267 79.038 2.496C79.246 2.652 79.35 2.87733 79.35 3.172C79.35 3.64 79.09 3.94333 78.57 4.082L76.75 4.394C76.3686 4.48067 76.1346 4.68 76.048 4.992C75.9786 5.28667 76.0306 5.72867 76.204 6.318L84.342 34.736L82.158 36.478L90.478 9.62ZM107.144 3.198C107.144 2.886 107.248 2.652 107.456 2.496C107.664 2.32267 107.976 2.236 108.392 2.236H116.322C116.773 2.236 117.093 2.32267 117.284 2.496C117.492 2.66933 117.596 2.90333 117.596 3.198C117.596 3.406 117.527 3.588 117.388 3.744C117.267 3.88267 117.033 4.02133 116.686 4.16L115.75 4.498C115.178 4.74067 114.684 5.11333 114.268 5.616C113.869 6.11867 113.54 6.85533 113.28 7.826L105.922 34.45C105.801 34.8833 105.714 35.2387 105.662 35.516C105.61 35.776 105.584 36.0793 105.584 36.426V37.57C105.584 37.9167 105.489 38.1853 105.298 38.376C105.125 38.5493 104.882 38.636 104.57 38.636H98.174C97.8793 38.636 97.6366 38.5493 97.446 38.376C97.2553 38.1853 97.16 37.9167 97.16 37.57V36.426C97.16 36.166 97.1426 35.9233 97.108 35.698C97.0906 35.4727 97.0126 35.1433 96.874 34.71L88.762 5.954C88.5886 5.39933 88.4326 5.02667 88.294 4.836C88.1553 4.64533 87.9473 4.50667 87.67 4.42L86.448 4.082C86.1533 3.978 85.9453 3.85667 85.824 3.718C85.7026 3.57933 85.642 3.406 85.642 3.198C85.642 2.886 85.746 2.652 85.954 2.496C86.1793 2.32267 86.4913 2.236 86.89 2.236H98.824C99.24 2.236 99.552 2.32267 99.76 2.496C99.968 2.652 100.072 2.886 100.072 3.198C100.072 3.42333 99.994 3.614 99.838 3.77C99.6993 3.926 99.4826 4.04733 99.188 4.134L97.498 4.446C97.1166 4.53267 96.8826 4.706 96.796 4.966C96.7266 5.226 96.7786 5.67667 96.952 6.318L104.83 34.762L102.906 36.348L110.862 7.592C111.105 6.74267 111.105 6.06667 110.862 5.564C110.637 5.044 110.091 4.654 109.224 4.394L107.924 4.108C107.647 4.004 107.447 3.88267 107.326 3.744C107.205 3.60533 107.144 3.42333 107.144 3.198Z" fill="#07452F"/>
<path d="M131.827 35.542V35.074L131.385 35.048V19.24C131.385 18.0093 131.082 17.0647 130.475 16.406C129.886 15.73 129.045 15.392 127.953 15.392C126.913 15.392 126.116 15.626 125.561 16.094C125.024 16.562 124.755 17.1167 124.755 17.758V20.02C124.755 21.008 124.417 21.788 123.741 22.36C123.065 22.932 122.138 23.218 120.959 23.218C119.971 23.218 119.209 22.9753 118.671 22.49C118.151 22.0047 117.891 21.32 117.891 20.436C117.891 19.396 118.316 18.3733 119.165 17.368C120.032 16.3453 121.297 15.5047 122.961 14.846C124.643 14.1873 126.714 13.858 129.175 13.858C132.278 13.858 134.583 14.4993 136.091 15.782C137.617 17.0473 138.379 18.772 138.379 20.956V34.476C138.379 34.996 138.483 35.3773 138.691 35.62C138.899 35.8627 139.177 35.984 139.523 35.984C139.887 35.984 140.165 35.8973 140.355 35.724C140.563 35.5333 140.728 35.3167 140.849 35.074C140.936 34.97 141.014 34.8833 141.083 34.814C141.17 34.7447 141.274 34.71 141.395 34.71C141.569 34.71 141.699 34.7793 141.785 34.918C141.872 35.0393 141.915 35.204 141.915 35.412C141.915 35.932 141.725 36.4867 141.343 37.076C140.962 37.6653 140.381 38.1767 139.601 38.61C138.821 39.026 137.842 39.234 136.663 39.234C135.155 39.234 133.968 38.9047 133.101 38.246C132.252 37.57 131.827 36.6687 131.827 35.542ZM116.747 33.28C116.747 31.1827 117.666 29.4927 119.503 28.21C121.358 26.9273 124.01 26.286 127.459 26.286C128.569 26.286 129.548 26.3813 130.397 26.572C131.264 26.7627 132.018 27.014 132.659 27.326L132.165 28.652C131.576 28.3747 130.969 28.158 130.345 28.002C129.739 27.846 129.071 27.768 128.343 27.768C126.957 27.768 125.865 28.158 125.067 28.938C124.287 29.7007 123.897 30.7667 123.897 32.136C123.897 33.488 124.235 34.5193 124.911 35.23C125.605 35.9407 126.497 36.296 127.589 36.296C128.473 36.296 129.323 36.0967 130.137 35.698C130.969 35.282 131.663 34.71 132.217 33.982L132.737 35.178C131.819 36.478 130.588 37.4833 129.045 38.194C127.52 38.8873 125.882 39.234 124.131 39.234C121.947 39.234 120.171 38.688 118.801 37.596C117.432 36.4867 116.747 35.048 116.747 33.28Z" fill="#07452F"/>
<path d="M154.324 1.326V35.1C154.324 35.568 154.394 35.9147 154.532 36.14C154.671 36.3653 154.879 36.5213 155.156 36.608L156.248 36.868C156.526 36.9547 156.725 37.076 156.846 37.232C156.985 37.3707 157.054 37.5527 157.054 37.778C157.054 38.038 156.959 38.246 156.768 38.402C156.595 38.558 156.309 38.636 155.91 38.636H145.614C145.233 38.636 144.947 38.558 144.756 38.402C144.583 38.246 144.496 38.038 144.496 37.778C144.496 37.57 144.557 37.388 144.678 37.232C144.817 37.076 145.025 36.9547 145.302 36.868L146.394 36.608C146.689 36.5213 146.906 36.3653 147.044 36.14C147.183 35.9147 147.252 35.5767 147.252 35.126V5.304C147.252 4.94 147.192 4.68 147.07 4.524C146.966 4.35067 146.784 4.24667 146.524 4.212L145.094 4.134C144.817 4.082 144.618 3.99533 144.496 3.874C144.392 3.73533 144.34 3.562 144.34 3.354C144.34 3.12867 144.41 2.94667 144.548 2.808C144.687 2.652 144.947 2.51333 145.328 2.392L150.762 0.546001C151.334 0.337999 151.776 0.199332 152.088 0.13C152.418 0.0433333 152.695 0 152.92 0C153.388 0 153.735 0.121333 153.96 0.363998C154.203 0.606666 154.324 0.927333 154.324 1.326Z" fill="#07452F"/>
<path d="M161.836 38.636C161.454 38.636 161.177 38.558 161.004 38.402C160.848 38.246 160.77 38.038 160.77 37.778C160.77 37.57 160.83 37.388 160.952 37.232C161.09 37.076 161.298 36.9547 161.576 36.868L162.694 36.608C162.988 36.5213 163.205 36.3653 163.344 36.14C163.482 35.9147 163.552 35.5767 163.552 35.126V5.304C163.552 4.94 163.491 4.68 163.37 4.524C163.248 4.35067 163.066 4.24667 162.824 4.212L161.368 4.134C161.108 4.082 160.917 3.99533 160.796 3.874C160.692 3.73533 160.64 3.562 160.64 3.354C160.64 3.12867 160.709 2.94667 160.848 2.808C160.986 2.652 161.238 2.51333 161.602 2.392L167.062 0.546001C167.599 0.355333 168.024 0.216666 168.336 0.13C168.665 0.0433333 168.977 0 169.272 0C169.705 0 170.034 0.121333 170.26 0.363998C170.485 0.606666 170.598 0.927333 170.598 1.326V35.1C170.598 35.568 170.667 35.9147 170.806 36.14C170.944 36.3653 171.161 36.5213 171.456 36.608L172.522 36.868C172.972 37.0587 173.198 37.3447 173.198 37.726C173.198 38.3327 172.816 38.636 172.054 38.636H161.836ZM168.674 27.95L179.204 18.928C179.845 18.3733 180.122 17.862 180.036 17.394C179.949 16.9087 179.524 16.5707 178.762 16.38L177.826 16.146C177.548 16.0593 177.358 15.9553 177.254 15.834C177.167 15.6953 177.124 15.522 177.124 15.314C177.124 15.0367 177.219 14.82 177.41 14.664C177.618 14.508 177.886 14.43 178.216 14.43H187.368C187.714 14.43 187.983 14.508 188.174 14.664C188.382 14.82 188.486 15.028 188.486 15.288C188.486 15.5307 188.399 15.7387 188.226 15.912C188.052 16.0853 187.706 16.2327 187.186 16.354C186.198 16.562 185.305 16.8827 184.508 17.316C183.728 17.7493 182.818 18.408 181.778 19.292L169.376 29.718L168.674 27.95ZM177.436 21.424L186.484 35.048C186.865 35.6027 187.203 35.9927 187.498 36.218C187.81 36.426 188.234 36.6167 188.772 36.79C189.066 36.9287 189.283 37.0847 189.422 37.258C189.578 37.4313 189.656 37.622 189.656 37.83C189.656 38.0727 189.56 38.272 189.37 38.428C189.179 38.5667 188.91 38.636 188.564 38.636H177.8C177.505 38.636 177.262 38.558 177.072 38.402C176.898 38.246 176.812 38.038 176.812 37.778C176.812 37.6047 176.855 37.4573 176.942 37.336C177.046 37.1973 177.219 37.0847 177.462 36.998L178.372 36.764C178.84 36.66 179.1 36.4693 179.152 36.192C179.204 35.9147 179.022 35.4727 178.606 34.866L172.652 25.766L177.436 21.424Z" fill="#07452F"/>
<path d="M197.428 2.236H216.746C217.318 2.236 217.794 2.158 218.176 2.002C218.574 1.846 218.921 1.69867 219.216 1.56C219.528 1.404 219.84 1.326 220.152 1.326C220.602 1.326 220.94 1.43867 221.166 1.664C221.408 1.88933 221.599 2.288 221.738 2.86L223.454 11.622C223.54 12.0207 223.514 12.35 223.376 12.61C223.254 12.87 223.02 13.026 222.674 13.078C222.362 13.1473 222.084 13.1213 221.842 13C221.599 12.8787 221.391 12.6447 221.218 12.298C220.264 10.0967 219.432 8.44133 218.722 7.332C218.011 6.20533 217.3 5.44267 216.59 5.044C215.896 4.64533 215.099 4.446 214.198 4.446H211.052V34.97C211.052 35.3167 211.156 35.594 211.364 35.802C211.572 36.01 211.875 36.1747 212.274 36.296L213.886 36.608C214.492 36.7987 214.796 37.154 214.796 37.674C214.796 38.3153 214.38 38.636 213.548 38.636H200.652C200.236 38.636 199.924 38.5493 199.716 38.376C199.508 38.2027 199.404 37.9687 199.404 37.674C199.404 37.154 199.707 36.7987 200.314 36.608L201.952 36.296C202.35 36.1747 202.654 36.01 202.862 35.802C203.07 35.594 203.174 35.3167 203.174 34.97V4.446H200.002C199.118 4.446 198.329 4.654 197.636 5.07C196.942 5.486 196.232 6.25733 195.504 7.384C194.793 8.49333 193.952 10.1313 192.982 12.298C192.826 12.6447 192.618 12.8787 192.358 13C192.115 13.1213 191.838 13.1473 191.526 13.078C191.196 13.026 190.962 12.87 190.824 12.61C190.702 12.35 190.676 12.0207 190.746 11.622L192.462 2.86C192.6 2.288 192.791 1.88933 193.034 1.664C193.276 1.43867 193.614 1.326 194.048 1.326C194.36 1.326 194.663 1.404 194.958 1.56C195.252 1.69867 195.59 1.846 195.972 2.002C196.353 2.158 196.838 2.236 197.428 2.236Z" fill="#07452F"/>
<path d="M236.359 1.326V35.1C236.359 35.568 236.429 35.9147 236.568 36.14C236.706 36.3653 236.923 36.5213 237.217 36.608L238.284 36.868C238.734 37.0587 238.96 37.3447 238.96 37.726C238.96 38.3327 238.578 38.636 237.816 38.636H227.676C227.277 38.636 226.982 38.558 226.792 38.402C226.618 38.246 226.531 38.038 226.531 37.778C226.531 37.57 226.592 37.388 226.714 37.232C226.852 37.076 227.06 36.9547 227.337 36.868L228.456 36.608C228.75 36.5213 228.967 36.3653 229.105 36.14C229.244 35.9147 229.314 35.5767 229.314 35.126V5.304C229.314 4.94 229.253 4.68 229.132 4.524C229.01 4.35067 228.828 4.24667 228.585 4.212L227.13 4.134C226.87 4.082 226.679 3.99533 226.557 3.874C226.453 3.73533 226.402 3.562 226.402 3.354C226.402 3.12867 226.471 2.94667 226.609 2.808C226.748 2.652 226.999 2.51333 227.363 2.392L232.824 0.546001C233.361 0.355333 233.786 0.216666 234.098 0.13C234.427 0.0433333 234.739 0 235.033 0C235.467 0 235.796 0.121333 236.021 0.363998C236.247 0.606666 236.359 0.927333 236.359 1.326ZM235.632 20.93L234.669 19.942L235.658 19.058C237.72 17.186 239.497 15.8513 240.988 15.054C242.478 14.2567 243.891 13.858 245.225 13.858C247.236 13.858 248.796 14.5253 249.906 15.86C251.015 17.1773 251.7 18.9887 251.96 21.294L253.52 35.022C253.572 35.5073 253.658 35.8713 253.779 36.114C253.918 36.3567 254.144 36.53 254.456 36.634L255.469 36.868C255.747 36.972 255.946 37.102 256.068 37.258C256.189 37.3967 256.25 37.57 256.25 37.778C256.25 38.038 256.163 38.246 255.99 38.402C255.816 38.558 255.53 38.636 255.132 38.636H244.861C244.081 38.636 243.691 38.3327 243.691 37.726C243.691 37.3447 243.926 37.0587 244.394 36.868L245.486 36.608C245.815 36.5213 246.058 36.3567 246.214 36.114C246.37 35.8713 246.422 35.5073 246.37 35.022L244.939 22.282C244.766 20.7913 244.394 19.682 243.822 18.954C243.25 18.2087 242.4 17.836 241.273 17.836C240.563 17.836 239.826 18.0267 239.064 18.408C238.301 18.772 237.495 19.318 236.646 20.046L235.632 20.93Z" fill="#07452F"/>
<path d="M281.462 23.712C281.462 24.4573 281.245 25.0293 280.812 25.428C280.396 25.8267 279.78 26.026 278.966 26.026H262.768V24.414H273.272C274.017 24.414 274.39 24.0673 274.39 23.374C274.39 20.8953 273.974 19.032 273.142 17.784C272.31 16.536 271.218 15.912 269.866 15.912C268.808 15.912 267.881 16.2413 267.084 16.9C266.286 17.5587 265.662 18.5207 265.212 19.786C264.761 21.034 264.536 22.568 264.536 24.388C264.536 27.7853 265.307 30.342 266.85 32.058C268.41 33.7567 270.472 34.606 273.038 34.606C274.632 34.606 276.01 34.2593 277.172 33.566C278.35 32.8553 279.208 31.876 279.746 30.628C279.971 30.3507 280.153 30.16 280.292 30.056C280.448 29.952 280.604 29.9 280.76 29.9C280.985 29.9 281.15 30.004 281.254 30.212C281.358 30.4027 281.401 30.6453 281.384 30.94C281.314 32.448 280.803 33.8347 279.85 35.1C278.914 36.3653 277.64 37.3793 276.028 38.142C274.416 38.8873 272.578 39.26 270.516 39.26C268.089 39.26 265.94 38.7573 264.068 37.752C262.213 36.7293 260.757 35.308 259.7 33.488C258.642 31.6507 258.114 29.51 258.114 27.066C258.114 24.466 258.625 22.178 259.648 20.202C260.67 18.2087 262.126 16.6487 264.016 15.522C265.922 14.3953 268.184 13.832 270.802 13.832C273.02 13.832 274.927 14.2567 276.522 15.106C278.116 15.9553 279.338 17.1253 280.188 18.616C281.037 20.0893 281.462 21.788 281.462 23.712Z" fill="#07452F"/>
<path d="M32.344 38.09C32.344 38.5927 32.24 38.9567 32.032 39.182C31.8413 39.4073 31.5467 39.52 31.148 39.52C30.7667 39.52 30.3853 39.3813 30.004 39.104C29.6227 38.8267 29.25 38.506 28.886 38.142C28.522 37.778 28.1667 37.4573 27.82 37.18C27.4733 36.9027 27.1353 36.764 26.806 36.764C26.494 36.764 26.0953 36.9027 25.61 37.18C25.142 37.4573 24.5613 37.778 23.868 38.142C23.1747 38.4887 22.3253 38.8007 21.32 39.078C20.3147 39.3553 19.1187 39.494 17.732 39.494C14.9933 39.494 12.532 39.0433 10.348 38.142C8.164 37.2233 6.30067 35.932 4.758 34.268C3.21533 32.5867 2.03667 30.602 1.222 28.314C0.407333 26.0087 0 23.4693 0 20.696C0 17.888 0.450667 15.314 1.352 12.974C2.25333 10.6167 3.51867 8.58 5.148 6.864C6.79467 5.13067 8.72733 3.796 10.946 2.86C13.1647 1.90667 15.5913 1.43 18.226 1.43C19.994 1.43 21.4327 1.60333 22.542 1.95C23.6687 2.29667 24.5527 2.652 25.194 3.016C25.8527 3.36267 26.3467 3.536 26.676 3.536C27.0747 3.536 27.4213 3.38 27.716 3.068C28.028 2.73867 28.3313 2.418 28.626 2.106C28.938 1.794 29.2847 1.638 29.666 1.638C29.926 1.638 30.134 1.716 30.29 1.872C30.4633 2.028 30.602 2.314 30.706 2.73L33.254 12.246C33.3407 12.5753 33.306 12.87 33.15 13.13C32.994 13.3727 32.76 13.5287 32.448 13.598C32.136 13.6673 31.8413 13.6413 31.564 13.52C31.304 13.3813 31.096 13.1387 30.94 12.792C29.9693 10.5387 28.8687 8.74467 27.638 7.41C26.4073 6.07533 25.0727 5.122 23.634 4.55C22.1953 3.96067 20.6613 3.666 19.032 3.666C16.8653 3.666 14.9413 4.29 13.26 5.538C11.596 6.786 10.296 8.57133 9.36 10.894C8.424 13.2167 7.956 15.9987 7.956 19.24C7.956 22.9147 8.48467 26.0347 9.542 28.6C10.5993 31.148 12.0293 33.0893 13.832 34.424C15.652 35.7587 17.6973 36.426 19.968 36.426C20.7133 36.426 21.4067 36.348 22.048 36.192C22.6893 36.0187 23.244 35.7847 23.712 35.49C24.1973 35.178 24.57 34.8053 24.83 34.372C25.1073 33.9387 25.246 33.4447 25.246 32.89V25.714C25.246 25.35 25.142 25.0813 24.934 24.908C24.7433 24.7173 24.3707 24.5613 23.816 24.44L21.866 24.128C21.5193 24.0413 21.2507 23.9113 21.06 23.738C20.8693 23.5647 20.774 23.3567 20.774 23.114C20.774 22.8367 20.878 22.62 21.086 22.464C21.294 22.2907 21.6147 22.204 22.048 22.204H34.372C34.8227 22.204 35.152 22.2907 35.36 22.464C35.568 22.62 35.672 22.8367 35.672 23.114C35.672 23.3567 35.594 23.556 35.438 23.712C35.2993 23.8507 35.0653 23.972 34.736 24.076L33.592 24.362C33.1587 24.4833 32.838 24.648 32.63 24.856C32.4393 25.0467 32.344 25.3327 32.344 25.714V38.09Z" stroke="#006947" stroke-width="2" mask="url(#path-1-inside-1_21_17)"/>
<path d="M51.9764 13.858C54.5591 13.858 56.8298 14.3953 58.7884 15.47C60.7644 16.5447 62.3071 18.044 63.4164 19.968C64.5258 21.8747 65.0804 24.0933 65.0804 26.624C65.0804 29.0333 64.5084 31.1913 63.3644 33.098C62.2378 35.0047 60.6691 36.5127 58.6584 37.622C56.6651 38.714 54.3511 39.26 51.7164 39.26C49.1338 39.26 46.8544 38.7227 44.8784 37.648C42.9198 36.556 41.3858 35.0567 40.2764 33.15C39.1844 31.226 38.6384 29.016 38.6384 26.52C38.6384 24.076 39.2018 21.9007 40.3284 19.994C41.4724 18.0873 43.0411 16.588 45.0344 15.496C47.0451 14.404 49.3591 13.858 51.9764 13.858ZM53.6924 37.076C54.8538 36.9027 55.7898 36.3653 56.5004 35.464C57.2111 34.5453 57.6618 33.2713 57.8524 31.642C58.0604 30.0127 57.9738 28.0367 57.5924 25.714C57.2111 23.4087 56.6564 21.5107 55.9284 20.02C55.2004 18.5293 54.3338 17.446 53.3284 16.77C52.3231 16.094 51.2224 15.8513 50.0264 16.042C48.8651 16.2153 47.9291 16.7613 47.2184 17.68C46.5078 18.5987 46.0571 19.8727 45.8664 21.502C45.6758 23.114 45.7624 25.0727 46.1264 27.378C46.5078 29.666 47.0624 31.564 47.7904 33.072C48.5358 34.5627 49.4111 35.646 50.4164 36.322C51.4218 36.998 52.5138 37.2493 53.6924 37.076Z" stroke="#006947" stroke-width="2" mask="url(#path-1-inside-1_21_17)"/>
<path d="M90.478 9.62L92.714 10.218L85.278 34.45C85.174 34.762 85.0873 35.074 85.018 35.386C84.966 35.6807 84.94 36.0273 84.94 36.426V37.57C84.94 37.9167 84.8446 38.1853 84.654 38.376C84.4806 38.5493 84.238 38.636 83.926 38.636H77.738C77.4086 38.636 77.1486 38.5493 76.958 38.376C76.7846 38.1853 76.698 37.9167 76.698 37.57V36.426C76.698 36.1487 76.672 35.906 76.62 35.698C76.568 35.49 76.4813 35.1693 76.36 34.736L67.962 5.954C67.8233 5.50333 67.6586 5.18267 67.468 4.992C67.2946 4.784 67.0346 4.61933 66.688 4.498L65.466 4.134C65.1713 4.03 64.9633 3.9 64.842 3.744C64.738 3.57067 64.686 3.38 64.686 3.172C64.686 2.87733 64.79 2.652 64.998 2.496C65.206 2.32267 65.518 2.236 65.934 2.236H78.102C78.5353 2.236 78.8473 2.32267 79.038 2.496C79.246 2.652 79.35 2.87733 79.35 3.172C79.35 3.64 79.09 3.94333 78.57 4.082L76.75 4.394C76.3686 4.48067 76.1346 4.68 76.048 4.992C75.9786 5.28667 76.0306 5.72867 76.204 6.318L84.342 34.736L82.158 36.478L90.478 9.62ZM107.144 3.198C107.144 2.886 107.248 2.652 107.456 2.496C107.664 2.32267 107.976 2.236 108.392 2.236H116.322C116.773 2.236 117.093 2.32267 117.284 2.496C117.492 2.66933 117.596 2.90333 117.596 3.198C117.596 3.406 117.527 3.588 117.388 3.744C117.267 3.88267 117.033 4.02133 116.686 4.16L115.75 4.498C115.178 4.74067 114.684 5.11333 114.268 5.616C113.869 6.11867 113.54 6.85533 113.28 7.826L105.922 34.45C105.801 34.8833 105.714 35.2387 105.662 35.516C105.61 35.776 105.584 36.0793 105.584 36.426V37.57C105.584 37.9167 105.489 38.1853 105.298 38.376C105.125 38.5493 104.882 38.636 104.57 38.636H98.174C97.8793 38.636 97.6366 38.5493 97.446 38.376C97.2553 38.1853 97.16 37.9167 97.16 37.57V36.426C97.16 36.166 97.1426 35.9233 97.108 35.698C97.0906 35.4727 97.0126 35.1433 96.874 34.71L88.762 5.954C88.5886 5.39933 88.4326 5.02667 88.294 4.836C88.1553 4.64533 87.9473 4.50667 87.67 4.42L86.448 4.082C86.1533 3.978 85.9453 3.85667 85.824 3.718C85.7026 3.57933 85.642 3.406 85.642 3.198C85.642 2.886 85.746 2.652 85.954 2.496C86.1793 2.32267 86.4913 2.236 86.89 2.236H98.824C99.24 2.236 99.552 2.32267 99.76 2.496C99.968 2.652 100.072 2.886 100.072 3.198C100.072 3.42333 99.994 3.614 99.838 3.77C99.6993 3.926 99.4826 4.04733 99.188 4.134L97.498 4.446C97.1166 4.53267 96.8826 4.706 96.796 4.966C96.7266 5.226 96.7786 5.67667 96.952 6.318L104.83 34.762L102.906 36.348L110.862 7.592C111.105 6.74267 111.105 6.06667 110.862 5.564C110.637 5.044 110.091 4.654 109.224 4.394L107.924 4.108C107.647 4.004 107.447 3.88267 107.326 3.744C107.205 3.60533 107.144 3.42333 107.144 3.198Z" stroke="#006947" stroke-width="2" mask="url(#path-1-inside-1_21_17)"/>
<path d="M131.827 35.542V35.074L131.385 35.048V19.24C131.385 18.0093 131.082 17.0647 130.475 16.406C129.886 15.73 129.045 15.392 127.953 15.392C126.913 15.392 126.116 15.626 125.561 16.094C125.024 16.562 124.755 17.1167 124.755 17.758V20.02C124.755 21.008 124.417 21.788 123.741 22.36C123.065 22.932 122.138 23.218 120.959 23.218C119.971 23.218 119.209 22.9753 118.671 22.49C118.151 22.0047 117.891 21.32 117.891 20.436C117.891 19.396 118.316 18.3733 119.165 17.368C120.032 16.3453 121.297 15.5047 122.961 14.846C124.643 14.1873 126.714 13.858 129.175 13.858C132.278 13.858 134.583 14.4993 136.091 15.782C137.617 17.0473 138.379 18.772 138.379 20.956V34.476C138.379 34.996 138.483 35.3773 138.691 35.62C138.899 35.8627 139.177 35.984 139.523 35.984C139.887 35.984 140.165 35.8973 140.355 35.724C140.563 35.5333 140.728 35.3167 140.849 35.074C140.936 34.97 141.014 34.8833 141.083 34.814C141.17 34.7447 141.274 34.71 141.395 34.71C141.569 34.71 141.699 34.7793 141.785 34.918C141.872 35.0393 141.915 35.204 141.915 35.412C141.915 35.932 141.725 36.4867 141.343 37.076C140.962 37.6653 140.381 38.1767 139.601 38.61C138.821 39.026 137.842 39.234 136.663 39.234C135.155 39.234 133.968 38.9047 133.101 38.246C132.252 37.57 131.827 36.6687 131.827 35.542ZM116.747 33.28C116.747 31.1827 117.666 29.4927 119.503 28.21C121.358 26.9273 124.01 26.286 127.459 26.286C128.569 26.286 129.548 26.3813 130.397 26.572C131.264 26.7627 132.018 27.014 132.659 27.326L132.165 28.652C131.576 28.3747 130.969 28.158 130.345 28.002C129.739 27.846 129.071 27.768 128.343 27.768C126.957 27.768 125.865 28.158 125.067 28.938C124.287 29.7007 123.897 30.7667 123.897 32.136C123.897 33.488 124.235 34.5193 124.911 35.23C125.605 35.9407 126.497 36.296 127.589 36.296C128.473 36.296 129.323 36.0967 130.137 35.698C130.969 35.282 131.663 34.71 132.217 33.982L132.737 35.178C131.819 36.478 130.588 37.4833 129.045 38.194C127.52 38.8873 125.882 39.234 124.131 39.234C121.947 39.234 120.171 38.688 118.801 37.596C117.432 36.4867 116.747 35.048 116.747 33.28Z" stroke="#006947" stroke-width="2" mask="url(#path-1-inside-1_21_17)"/>
<path d="M154.324 1.326V35.1C154.324 35.568 154.394 35.9147 154.532 36.14C154.671 36.3653 154.879 36.5213 155.156 36.608L156.248 36.868C156.526 36.9547 156.725 37.076 156.846 37.232C156.985 37.3707 157.054 37.5527 157.054 37.778C157.054 38.038 156.959 38.246 156.768 38.402C156.595 38.558 156.309 38.636 155.91 38.636H145.614C145.233 38.636 144.947 38.558 144.756 38.402C144.583 38.246 144.496 38.038 144.496 37.778C144.496 37.57 144.557 37.388 144.678 37.232C144.817 37.076 145.025 36.9547 145.302 36.868L146.394 36.608C146.689 36.5213 146.906 36.3653 147.044 36.14C147.183 35.9147 147.252 35.5767 147.252 35.126V5.304C147.252 4.94 147.192 4.68 147.07 4.524C146.966 4.35067 146.784 4.24667 146.524 4.212L145.094 4.134C144.817 4.082 144.618 3.99533 144.496 3.874C144.392 3.73533 144.34 3.562 144.34 3.354C144.34 3.12867 144.41 2.94667 144.548 2.808C144.687 2.652 144.947 2.51333 145.328 2.392L150.762 0.546001C151.334 0.337999 151.776 0.199332 152.088 0.13C152.418 0.0433333 152.695 0 152.92 0C153.388 0 153.735 0.121333 153.96 0.363998C154.203 0.606666 154.324 0.927333 154.324 1.326Z" stroke="#006947" stroke-width="2" mask="url(#path-1-inside-1_21_17)"/>
<path d="M161.836 38.636C161.454 38.636 161.177 38.558 161.004 38.402C160.848 38.246 160.77 38.038 160.77 37.778C160.77 37.57 160.83 37.388 160.952 37.232C161.09 37.076 161.298 36.9547 161.576 36.868L162.694 36.608C162.988 36.5213 163.205 36.3653 163.344 36.14C163.482 35.9147 163.552 35.5767 163.552 35.126V5.304C163.552 4.94 163.491 4.68 163.37 4.524C163.248 4.35067 163.066 4.24667 162.824 4.212L161.368 4.134C161.108 4.082 160.917 3.99533 160.796 3.874C160.692 3.73533 160.64 3.562 160.64 3.354C160.64 3.12867 160.709 2.94667 160.848 2.808C160.986 2.652 161.238 2.51333 161.602 2.392L167.062 0.546001C167.599 0.355333 168.024 0.216666 168.336 0.13C168.665 0.0433333 168.977 0 169.272 0C169.705 0 170.034 0.121333 170.26 0.363998C170.485 0.606666 170.598 0.927333 170.598 1.326V35.1C170.598 35.568 170.667 35.9147 170.806 36.14C170.944 36.3653 171.161 36.5213 171.456 36.608L172.522 36.868C172.972 37.0587 173.198 37.3447 173.198 37.726C173.198 38.3327 172.816 38.636 172.054 38.636H161.836ZM168.674 27.95L179.204 18.928C179.845 18.3733 180.122 17.862 180.036 17.394C179.949 16.9087 179.524 16.5707 178.762 16.38L177.826 16.146C177.548 16.0593 177.358 15.9553 177.254 15.834C177.167 15.6953 177.124 15.522 177.124 15.314C177.124 15.0367 177.219 14.82 177.41 14.664C177.618 14.508 177.886 14.43 178.216 14.43H187.368C187.714 14.43 187.983 14.508 188.174 14.664C188.382 14.82 188.486 15.028 188.486 15.288C188.486 15.5307 188.399 15.7387 188.226 15.912C188.052 16.0853 187.706 16.2327 187.186 16.354C186.198 16.562 185.305 16.8827 184.508 17.316C183.728 17.7493 182.818 18.408 181.778 19.292L169.376 29.718L168.674 27.95ZM177.436 21.424L186.484 35.048C186.865 35.6027 187.203 35.9927 187.498 36.218C187.81 36.426 188.234 36.6167 188.772 36.79C189.066 36.9287 189.283 37.0847 189.422 37.258C189.578 37.4313 189.656 37.622 189.656 37.83C189.656 38.0727 189.56 38.272 189.37 38.428C189.179 38.5667 188.91 38.636 188.564 38.636H177.8C177.505 38.636 177.262 38.558 177.072 38.402C176.898 38.246 176.812 38.038 176.812 37.778C176.812 37.6047 176.855 37.4573 176.942 37.336C177.046 37.1973 177.219 37.0847 177.462 36.998L178.372 36.764C178.84 36.66 179.1 36.4693 179.152 36.192C179.204 35.9147 179.022 35.4727 178.606 34.866L172.652 25.766L177.436 21.424Z" stroke="#006947" stroke-width="2" mask="url(#path-1-inside-1_21_17)"/>
<path d="M197.428 2.236H216.746C217.318 2.236 217.794 2.158 218.176 2.002C218.574 1.846 218.921 1.69867 219.216 1.56C219.528 1.404 219.84 1.326 220.152 1.326C220.602 1.326 220.94 1.43867 221.166 1.664C221.408 1.88933 221.599 2.288 221.738 2.86L223.454 11.622C223.54 12.0207 223.514 12.35 223.376 12.61C223.254 12.87 223.02 13.026 222.674 13.078C222.362 13.1473 222.084 13.1213 221.842 13C221.599 12.8787 221.391 12.6447 221.218 12.298C220.264 10.0967 219.432 8.44133 218.722 7.332C218.011 6.20533 217.3 5.44267 216.59 5.044C215.896 4.64533 215.099 4.446 214.198 4.446H211.052V34.97C211.052 35.3167 211.156 35.594 211.364 35.802C211.572 36.01 211.875 36.1747 212.274 36.296L213.886 36.608C214.492 36.7987 214.796 37.154 214.796 37.674C214.796 38.3153 214.38 38.636 213.548 38.636H200.652C200.236 38.636 199.924 38.5493 199.716 38.376C199.508 38.2027 199.404 37.9687 199.404 37.674C199.404 37.154 199.707 36.7987 200.314 36.608L201.952 36.296C202.35 36.1747 202.654 36.01 202.862 35.802C203.07 35.594 203.174 35.3167 203.174 34.97V4.446H200.002C199.118 4.446 198.329 4.654 197.636 5.07C196.942 5.486 196.232 6.25733 195.504 7.384C194.793 8.49333 193.952 10.1313 192.982 12.298C192.826 12.6447 192.618 12.8787 192.358 13C192.115 13.1213 191.838 13.1473 191.526 13.078C191.196 13.026 190.962 12.87 190.824 12.61C190.702 12.35 190.676 12.0207 190.746 11.622L192.462 2.86C192.6 2.288 192.791 1.88933 193.034 1.664C193.276 1.43867 193.614 1.326 194.048 1.326C194.36 1.326 194.663 1.404 194.958 1.56C195.252 1.69867 195.59 1.846 195.972 2.002C196.353 2.158 196.838 2.236 197.428 2.236Z" stroke="#006947" stroke-width="2" mask="url(#path-1-inside-1_21_17)"/>
<path d="M236.359 1.326V35.1C236.359 35.568 236.429 35.9147 236.568 36.14C236.706 36.3653 236.923 36.5213 237.217 36.608L238.284 36.868C238.734 37.0587 238.96 37.3447 238.96 37.726C238.96 38.3327 238.578 38.636 237.816 38.636H227.676C227.277 38.636 226.982 38.558 226.792 38.402C226.618 38.246 226.531 38.038 226.531 37.778C226.531 37.57 226.592 37.388 226.714 37.232C226.852 37.076 227.06 36.9547 227.337 36.868L228.456 36.608C228.75 36.5213 228.967 36.3653 229.105 36.14C229.244 35.9147 229.314 35.5767 229.314 35.126V5.304C229.314 4.94 229.253 4.68 229.132 4.524C229.01 4.35067 228.828 4.24667 228.585 4.212L227.13 4.134C226.87 4.082 226.679 3.99533 226.557 3.874C226.453 3.73533 226.402 3.562 226.402 3.354C226.402 3.12867 226.471 2.94667 226.609 2.808C226.748 2.652 226.999 2.51333 227.363 2.392L232.824 0.546001C233.361 0.355333 233.786 0.216666 234.098 0.13C234.427 0.0433333 234.739 0 235.033 0C235.467 0 235.796 0.121333 236.021 0.363998C236.247 0.606666 236.359 0.927333 236.359 1.326ZM235.632 20.93L234.669 19.942L235.658 19.058C237.72 17.186 239.497 15.8513 240.988 15.054C242.478 14.2567 243.891 13.858 245.225 13.858C247.236 13.858 248.796 14.5253 249.906 15.86C251.015 17.1773 251.7 18.9887 251.96 21.294L253.52 35.022C253.572 35.5073 253.658 35.8713 253.779 36.114C253.918 36.3567 254.144 36.53 254.456 36.634L255.469 36.868C255.747 36.972 255.946 37.102 256.068 37.258C256.189 37.3967 256.25 37.57 256.25 37.778C256.25 38.038 256.163 38.246 255.99 38.402C255.816 38.558 255.53 38.636 255.132 38.636H244.861C244.081 38.636 243.691 38.3327 243.691 37.726C243.691 37.3447 243.926 37.0587 244.394 36.868L245.486 36.608C245.815 36.5213 246.058 36.3567 246.214 36.114C246.37 35.8713 246.422 35.5073 246.37 35.022L244.939 22.282C244.766 20.7913 244.394 19.682 243.822 18.954C243.25 18.2087 242.4 17.836 241.273 17.836C240.563 17.836 239.826 18.0267 239.064 18.408C238.301 18.772 237.495 19.318 236.646 20.046L235.632 20.93Z" stroke="#006947" stroke-width="2" mask="url(#path-1-inside-1_21_17)"/>
<path d="M281.462 23.712C281.462 24.4573 281.245 25.0293 280.812 25.428C280.396 25.8267 279.78 26.026 278.966 26.026H262.768V24.414H273.272C274.017 24.414 274.39 24.0673 274.39 23.374C274.39 20.8953 273.974 19.032 273.142 17.784C272.31 16.536 271.218 15.912 269.866 15.912C268.808 15.912 267.881 16.2413 267.084 16.9C266.286 17.5587 265.662 18.5207 265.212 19.786C264.761 21.034 264.536 22.568 264.536 24.388C264.536 27.7853 265.307 30.342 266.85 32.058C268.41 33.7567 270.472 34.606 273.038 34.606C274.632 34.606 276.01 34.2593 277.172 33.566C278.35 32.8553 279.208 31.876 279.746 30.628C279.971 30.3507 280.153 30.16 280.292 30.056C280.448 29.952 280.604 29.9 280.76 29.9C280.985 29.9 281.15 30.004 281.254 30.212C281.358 30.4027 281.401 30.6453 281.384 30.94C281.314 32.448 280.803 33.8347 279.85 35.1C278.914 36.3653 277.64 37.3793 276.028 38.142C274.416 38.8873 272.578 39.26 270.516 39.26C268.089 39.26 265.94 38.7573 264.068 37.752C262.213 36.7293 260.757 35.308 259.7 33.488C258.642 31.6507 258.114 29.51 258.114 27.066C258.114 24.466 258.625 22.178 259.648 20.202C260.67 18.2087 262.126 16.6487 264.016 15.522C265.922 14.3953 268.184 13.832 270.802 13.832C273.02 13.832 274.927 14.2567 276.522 15.106C278.116 15.9553 279.338 17.1253 280.188 18.616C281.037 20.0893 281.462 21.788 281.462 23.712Z" stroke="#006947" stroke-width="2" mask="url(#path-1-inside-1_21_17)"/>
<path d="M286.804 2.73599H300.324C303.482 2.73599 306.337 3.19703 308.892 4.11099C311.452 5.02641 313.646 6.32794 315.482 8.01236L315.484 8.01431C317.337 9.69886 318.76 11.7024 319.755 14.029L319.756 14.0299C320.748 16.3346 321.249 18.9099 321.249 21.7624C321.249 25.0099 320.497 27.8469 319.008 30.2897L319.007 30.2917C317.533 32.7358 315.431 34.6579 312.683 36.0573C309.942 37.436 306.652 38.1363 302.795 38.1364H286.804C286.429 38.1364 286.248 38.059 286.168 37.9948C286.103 37.9309 286.056 37.8406 286.056 37.6745C286.056 37.5193 286.098 37.4192 286.164 37.3424C286.234 37.26 286.364 37.1673 286.595 37.0915L288.222 36.7878L288.25 36.7819L288.276 36.7741C288.714 36.6408 289.095 36.4442 289.367 36.1549L289.368 36.1559C289.371 36.1527 289.374 36.1484 289.377 36.1452C289.378 36.1433 289.381 36.1421 289.383 36.1403L289.382 36.1393C289.689 35.8231 289.827 35.4169 289.827 34.9704V5.92838C289.827 5.47214 289.694 5.05321 289.382 4.73209H289.383C289.38 4.72937 289.377 4.72697 289.375 4.72427C289.372 4.72182 289.37 4.7189 289.368 4.71646H289.367C289.095 4.42738 288.714 4.2306 288.276 4.09732L288.253 4.09048L288.228 4.0856L286.567 3.75259C286.343 3.68469 286.222 3.59976 286.158 3.52408C286.098 3.45399 286.056 3.35705 286.056 3.19791C286.056 3.00799 286.112 2.93834 286.169 2.89615L286.188 2.88052C286.269 2.81307 286.446 2.73599 286.804 2.73599ZM296.705 34.4762C296.705 35.2771 296.932 35.9652 297.484 36.4215C298.01 36.8556 298.743 37.0299 299.596 37.0299H302.196C304.55 37.0299 306.632 36.4623 308.421 35.3122C310.218 34.1565 311.603 32.4155 312.588 30.1237L312.589 30.1217C313.577 27.8041 314.058 24.9064 314.058 21.4499C314.058 18.9108 313.772 16.613 313.194 14.5612L313.075 14.154C312.459 12.1219 311.58 10.3648 310.433 8.89127L310.2 8.60025C308.939 7.05225 307.414 5.86944 305.628 5.05728H305.629C303.856 4.24318 301.859 3.84244 299.648 3.84244H296.705V34.4762Z" fill="#07452F" stroke="#006947"/>
<path d="M360.723 32.9012C360.991 32.9729 361.264 33.0373 361.542 33.0946C361.397 33.3463 361.32 33.6262 361.32 33.9295C361.32 34.3862 361.55 34.7833 361.882 35.1151L361.893 35.1268L361.905 35.1366C362.116 35.3227 362.421 35.4829 362.774 35.6278C363.137 35.7766 363.59 35.9258 364.129 36.076L364.571 36.1864C365.652 36.4452 367.207 36.741 369.226 37.075L369.237 37.077C371.749 37.4383 373.697 37.9077 375.1 38.4754L375.107 38.4784C376.528 39.0302 377.478 39.7098 378.025 40.4842V40.4832C378.582 41.2891 378.869 42.2604 378.87 43.4198C378.87 45.5439 377.778 47.3058 375.446 48.7118L375.442 48.7137C373.128 50.1348 369.725 50.8758 365.173 50.8758C362.127 50.8758 359.715 50.6258 357.92 50.1395L357.917 50.1385L357.271 49.953C355.824 49.5015 354.809 48.9247 354.176 48.2518H354.175C353.461 47.474 353.116 46.5976 353.116 45.6043C353.116 44.4207 353.667 43.3588 354.874 42.409C355.753 41.7175 357.182 41.1503 359.204 40.7342C359.27 40.7589 359.338 40.7833 359.407 40.8075C359.145 40.9561 358.904 41.1236 358.686 41.3114L358.538 41.4452L358.528 41.4549C357.793 42.1902 357.394 43.04 357.394 43.992C357.394 45.7726 358.095 47.228 359.484 48.3123C360.886 49.4068 363.152 49.9002 366.162 49.9002C367.866 49.9002 369.278 49.7504 370.379 49.4383C371.49 49.1286 372.366 48.6569 372.939 47.9813L372.938 47.9803C373.506 47.3279 373.786 46.5347 373.786 45.6297C373.785 44.8708 373.506 44.2021 372.97 43.6454C372.434 43.0882 371.541 42.6325 370.375 42.244L370.371 42.242L369.914 42.1024C368.798 41.7774 367.329 41.4637 365.516 41.159L365.512 41.1581C364.343 40.9713 363.307 40.7781 362.403 40.5819L361.771 39.3182L361.419 39.3622C360.663 39.4572 359.953 39.5689 359.291 39.6971C358.322 39.3131 357.689 38.9054 357.338 38.494C356.919 38.0022 356.704 37.4088 356.704 36.6864C356.704 36.0567 356.874 35.4747 357.221 34.9305C357.571 34.3913 358.17 33.8979 359.07 33.4725L359.073 33.4706C359.528 33.2509 360.077 33.0602 360.723 32.9012ZM365.772 14.41C368.108 14.41 370.085 14.8081 371.719 15.5838L371.721 15.5848C373.385 16.3667 374.644 17.4122 375.523 18.7137L375.525 18.7166C376.402 19.9998 376.841 21.4435 376.841 23.0623C376.841 24.9104 376.356 26.5265 375.395 27.9276C374.43 29.3343 373.075 30.4394 371.311 31.2381L371.31 31.2391C369.567 32.0358 367.525 32.4422 365.173 32.4422C364.78 32.4422 364.396 32.43 364.022 32.4081L363.579 32.0194L363.163 31.6561L362.996 31.5106L362.778 31.535C362.04 31.6186 361.362 31.7309 360.746 31.87C360.191 31.7097 359.664 31.5174 359.166 31.2909C357.506 30.5095 356.238 29.465 355.343 28.1639H355.344C354.465 26.8613 354.026 25.4167 354.026 23.8163C354.026 21.9662 354.503 20.3485 355.449 18.9471C356.396 17.5426 357.741 16.438 359.504 15.6395L359.506 15.6385C361.283 14.8247 363.368 14.41 365.772 14.41ZM364.442 15.2313H364.434C363.401 15.3092 362.523 15.7049 361.826 16.4217H361.825C361.151 17.1158 360.702 18.0785 360.447 19.2645L360.446 19.2704C360.237 20.2995 360.193 21.5056 360.304 22.8807L360.361 23.4803C360.538 25.1602 360.875 26.6137 361.384 27.8309L361.388 27.8387C361.882 28.9624 362.508 29.8613 363.282 30.5077L363.438 30.6336L363.444 30.6375C364.301 31.2802 365.275 31.5758 366.345 31.5174L366.355 31.5164C367.93 31.3983 369.095 30.5718 369.809 29.1053C370.466 27.7551 370.668 25.9432 370.473 23.7186L370.429 23.2684C370.164 20.7442 369.532 18.7402 368.49 17.3075C367.451 15.8561 366.092 15.1331 364.442 15.2313Z" fill="#07452F" stroke="#006947"/>
<path d="M337.414 14.136C339.926 14.136 342.111 14.6585 343.985 15.6868H343.987C345.883 16.7179 347.358 18.1525 348.421 19.9954L348.422 19.9973C349.48 21.8169 350.018 23.9462 350.018 26.4016C350.018 28.7281 349.466 30.7959 348.373 32.6184L348.372 32.6213C347.293 34.4476 345.791 35.8934 343.856 36.9612C341.948 38.0068 339.718 38.5383 337.154 38.5383C334.642 38.5383 332.447 38.0158 330.555 36.9866C328.677 35.9386 327.211 34.5051 326.148 32.6809H326.149C325.105 30.8414 324.576 28.7188 324.576 26.2981C324.576 23.9352 325.119 21.8498 326.194 20.0286L326.195 20.0295C327.292 18.2012 328.793 16.7624 330.71 15.7122L330.711 15.7131C332.638 14.6664 334.868 14.136 337.414 14.136ZM339.045 16.1331C338.004 15.4332 336.859 15.1512 335.632 15.2922L335.39 15.3254C334.103 15.5176 333.051 16.1299 332.261 17.1516C331.476 18.1657 331.005 19.5372 330.807 21.2209C330.61 22.8934 330.702 24.9012 331.07 27.2336L331.071 27.2385C331.457 29.5566 332.023 31.504 332.778 33.0676L332.781 33.0735C333.551 34.6137 334.476 35.776 335.575 36.5149C336.682 37.259 337.899 37.5406 339.203 37.3489H339.204C340.488 37.1572 341.539 36.5558 342.331 35.552L342.334 35.5481C343.118 34.5338 343.59 33.162 343.787 31.4778L343.786 31.4768C344.001 29.7851 343.909 27.7599 343.523 25.4114V25.4104L343.37 24.553C342.993 22.5943 342.477 20.9329 341.815 19.5784C341.062 18.0367 340.145 16.8729 339.045 16.1331Z" fill="#07452F" stroke="#006947"/>
<path d="M377.666 9.29102C377.949 9.24164 378.139 9.25217 378.245 9.28397C379.491 9.6568 380.858 10.6669 381.557 12.3269C382.292 14.0745 382.375 15.1283 382.389 15.6807C382.392 15.7825 382.38 15.8732 382.341 15.9437C382.313 15.9946 382.243 16.0899 382.006 16.1526C381.991 16.1563 381.93 16.1646 381.798 16.1482C381.672 16.1326 381.517 16.0999 381.334 16.0516C380.96 15.9531 380.543 15.8117 380.09 15.6723C379.64 15.5338 379.162 15.2833 378.767 15.0381C378.572 14.9172 378.403 14.8012 378.274 14.7069C378.21 14.6598 378.157 14.6191 378.117 14.5869C378.097 14.5708 378.081 14.5573 378.069 14.5471C378.056 14.5364 378.052 14.5309 378.052 14.5309C377.572 14.056 376.735 13.5639 375.868 14.0087C375.457 14.2196 375.117 14.3494 374.406 14.6821C373.426 15.1406 372.643 15.6648 372.174 16.0817C372.152 16.081 372.122 16.0826 372.081 16.0763C371.932 16.0532 371.727 15.9933 371.485 15.902C371.194 15.792 370.883 15.6476 370.606 15.5095C371.04 14.8728 371.659 14.06 372.324 13.2625C373.162 12.2584 374.042 11.3137 374.684 10.7851C375.28 10.2944 376.028 9.8571 376.723 9.57607C377.07 9.43581 377.392 9.33893 377.666 9.29102Z" fill="#07452F" stroke="#006947"/>
<path d="M354.167 9.57707C353.923 9.51708 353.763 9.51599 353.678 9.53503C352.564 9.78724 351.303 10.592 350.59 12.0076C349.835 13.5079 349.7 14.432 349.655 14.9151C349.646 15.0014 349.652 15.0703 349.676 15.1222C349.691 15.1536 349.734 15.233 349.928 15.2989C349.928 15.2989 349.94 15.3022 349.968 15.3046C349.998 15.3071 350.04 15.3086 350.094 15.3056C350.202 15.2996 350.339 15.2797 350.504 15.2481C350.84 15.1836 351.216 15.0848 351.628 14.988C352.03 14.8938 352.465 14.7022 352.829 14.5095C353.008 14.4146 353.164 14.3224 353.283 14.2472C353.342 14.2097 353.391 14.1775 353.427 14.1519C353.445 14.1392 353.46 14.1286 353.47 14.1207C353.482 14.1123 353.485 14.1091 353.484 14.1102C353.944 13.713 354.744 13.3064 355.519 13.773C355.87 13.9847 356.159 14.1184 356.773 14.459C357.609 14.9219 358.272 15.431 358.67 15.8321C358.684 15.8319 358.702 15.832 358.723 15.8303C358.851 15.8193 359.033 15.7791 359.251 15.7132C359.494 15.6398 359.754 15.5419 359.992 15.4446C359.648 14.8635 359.162 14.1302 358.636 13.4052C357.954 12.4638 357.233 11.5745 356.699 11.0699C356.204 10.6023 355.571 10.172 354.976 9.88272C354.679 9.73845 354.402 9.63505 354.167 9.57707Z" fill="#07452F" stroke="#006947"/>
</svg>
