<svg width="436" height="59" viewBox="0 0 436 59" fill="none" xmlns="http://www.w3.org/2000/svg">
<path d="M36.7509 43.2798C36.7509 43.8509 36.6327 44.2645 36.3964 44.5205C36.1797 44.7766 35.8449 44.9046 35.3919 44.9046C34.9586 44.9046 34.5253 44.747 34.092 44.4319C33.6588 44.1168 33.2353 43.7524 32.8217 43.3388C32.4081 42.9253 32.0044 42.5609 31.6105 42.2458C31.2166 41.9307 30.8325 41.7731 30.4583 41.7731C30.1038 41.7731 29.6508 41.9307 29.0994 42.2458C28.5676 42.5609 27.9078 42.9253 27.12 43.3388C26.3322 43.7327 25.3672 44.0873 24.2248 44.4024C23.0825 44.7175 21.7236 44.8751 20.148 44.8751C17.0362 44.8751 14.2395 44.363 11.7579 43.3388C9.27634 42.295 7.15913 40.8277 5.40628 38.937C3.65342 37.0266 2.31416 34.7715 1.3885 32.1718C0.462833 29.5523 0 26.667 0 23.5158C0 20.3252 0.51207 17.4005 1.53621 14.7417C2.56035 12.0632 3.99808 9.74903 5.84941 7.79922C7.72044 5.82972 9.91643 4.31321 12.4374 3.24968C14.9584 2.16645 17.7157 1.62484 20.7093 1.62484C22.7182 1.62484 24.3529 1.82179 25.6133 2.21569C26.8935 2.60959 27.898 3.01333 28.6267 3.42693C29.3751 3.82083 29.9364 4.01778 30.3106 4.01778C30.7636 4.01778 31.1575 3.84053 31.4923 3.48602C31.8468 3.11181 32.1915 2.74745 32.5263 2.39294C32.8808 2.03843 33.2747 1.86118 33.708 1.86118C34.0034 1.86118 34.2398 1.9498 34.417 2.12706C34.614 2.30431 34.7715 2.62928 34.8897 3.10196L37.7849 13.9145C37.8833 14.2887 37.8439 14.6235 37.6667 14.919C37.4894 15.1947 37.2235 15.3719 36.869 15.4507C36.5145 15.5295 36.1797 15.5 35.8646 15.3621C35.5692 15.2045 35.3328 14.9288 35.1556 14.5349C34.0527 11.9746 32.802 9.93613 31.4037 8.41961C30.0053 6.9031 28.4888 5.81987 26.8541 5.16994C25.2194 4.50031 23.4764 4.16549 21.6251 4.16549C19.1632 4.16549 16.9771 4.87451 15.0667 6.29255C13.176 7.71059 11.6988 9.73918 10.6353 12.3783C9.57177 15.0174 9.04001 18.1785 9.04001 21.8614C9.04001 26.0368 9.6407 29.5819 10.8421 32.4967C12.0435 35.3919 13.6683 37.5978 15.7166 39.1143C17.7846 40.6308 20.1086 41.389 22.6886 41.389C23.5355 41.389 24.3233 41.3004 25.052 41.1232C25.7808 40.9262 26.411 40.6603 26.9428 40.3255C27.4942 39.971 27.9177 39.5476 28.2131 39.0552C28.5282 38.5628 28.6858 38.0015 28.6858 37.3713V29.2175C28.6858 28.8039 28.5676 28.4987 28.3313 28.3017C28.1146 28.0851 27.6912 27.9078 27.0609 27.77L24.8452 27.4154C24.4513 27.317 24.1461 27.1693 23.9294 26.9723C23.7128 26.7754 23.6045 26.539 23.6045 26.2633C23.6045 25.9482 23.7226 25.702 23.959 25.5247C24.1953 25.3278 24.5597 25.2293 25.052 25.2293H39.0552C39.5673 25.2293 39.9415 25.3278 40.1778 25.5247C40.4141 25.702 40.5323 25.9482 40.5323 26.2633C40.5323 26.539 40.4437 26.7655 40.2664 26.9428C40.1089 27.1003 39.843 27.2382 39.4688 27.3564L38.1689 27.6813C37.6765 27.8192 37.3122 28.0063 37.0758 28.2426C36.8592 28.4593 36.7509 28.7842 36.7509 29.2175V43.2798Z" fill="white"/>
<path d="M59.0582 15.7462C61.9928 15.7462 64.5728 16.3567 66.7984 17.5778C69.0436 18.7989 70.7964 20.5025 72.0569 22.6886C73.3174 24.8551 73.9476 27.376 73.9476 30.2515C73.9476 32.9891 73.2977 35.4411 71.9978 37.6076C70.7177 39.774 68.9353 41.4875 66.6506 42.748C64.3857 43.9888 61.7564 44.6092 58.7628 44.6092C55.8282 44.6092 53.2383 43.9986 50.9931 42.7775C48.7676 41.5368 47.0246 39.8331 45.7641 37.6667C44.5233 35.4805 43.9029 32.9694 43.9029 30.1333C43.9029 27.3564 44.543 24.8846 45.8232 22.7182C47.1231 20.5517 48.9055 18.8481 51.1704 17.6073C53.455 16.3665 56.0843 15.7462 59.0582 15.7462ZM61.008 42.1276C62.3276 41.9307 63.3911 41.3201 64.1986 40.296C65.0061 39.2521 65.5182 37.8045 65.7348 35.9532C65.9712 34.1019 65.8727 31.8567 65.4394 29.2175C65.0061 26.5981 64.3759 24.4415 63.5487 22.7477C62.7215 21.054 61.7367 19.823 60.5944 19.0549C59.4521 18.2868 58.2015 18.0111 56.8425 18.2277C55.523 18.4247 54.4594 19.0451 53.6519 20.0889C52.8444 21.1327 52.3324 22.5803 52.1157 24.4316C51.8991 26.2633 51.9976 28.4888 52.4112 31.1083C52.8445 33.708 53.4747 35.8646 54.3019 37.5781C55.1488 39.2718 56.1434 40.5028 57.2857 41.2709C58.428 42.039 59.6688 42.3246 61.008 42.1276Z" fill="white"/>
<path d="M102.806 10.9307L105.346 11.6102L96.8971 39.1438C96.7789 39.4983 96.6804 39.8528 96.6017 40.2073C96.5426 40.5422 96.513 40.9361 96.513 41.389V42.6889C96.513 43.0828 96.4047 43.3881 96.1881 43.6047C95.9911 43.8017 95.7154 43.9002 95.3609 43.9002H88.3298C87.9556 43.9002 87.6601 43.8017 87.4435 43.6047C87.2465 43.3881 87.1481 43.0828 87.1481 42.6889V41.389C87.1481 41.0739 87.1185 40.7982 87.0594 40.5619C87.0004 40.3255 86.9019 39.9612 86.764 39.4688L77.2218 6.76523C77.0642 6.25316 76.8771 5.8888 76.6605 5.67216C76.4635 5.43582 76.1681 5.24872 75.7742 5.11085L74.3857 4.69726C74.0509 4.57909 73.8145 4.43138 73.6767 4.25412C73.5585 4.05717 73.4994 3.84052 73.4994 3.60418C73.4994 3.26937 73.6176 3.01333 73.8539 2.83608C74.0903 2.63913 74.4448 2.54065 74.9175 2.54065H88.7434C89.2357 2.54065 89.5902 2.63913 89.8069 2.83608C90.0432 3.01333 90.1614 3.26937 90.1614 3.60418C90.1614 4.13595 89.866 4.48061 89.2751 4.63817L87.2071 4.99268C86.7739 5.09116 86.508 5.31765 86.4095 5.67216C86.3307 6.00697 86.3898 6.5092 86.5868 7.17883L95.8336 39.4688L93.352 41.4481L102.806 10.9307ZM121.742 3.63373C121.742 3.27922 121.86 3.01333 122.097 2.83608C122.333 2.63913 122.688 2.54065 123.16 2.54065H132.171C132.683 2.54065 133.047 2.63913 133.264 2.83608C133.5 3.03303 133.618 3.29891 133.618 3.63373C133.618 3.87007 133.54 4.07686 133.382 4.25412C133.244 4.41168 132.978 4.56924 132.584 4.7268L131.521 5.11085C130.871 5.38658 130.31 5.81003 129.837 6.38118C129.384 6.95233 129.01 7.78937 128.714 8.89229L120.354 39.1438C120.216 39.6362 120.117 40.0399 120.058 40.3551C119.999 40.6505 119.97 40.9951 119.97 41.389V42.6889C119.97 43.0828 119.861 43.3881 119.645 43.6047C119.448 43.8017 119.172 43.9002 118.818 43.9002H111.55C111.215 43.9002 110.94 43.8017 110.723 43.6047C110.506 43.3881 110.398 43.0828 110.398 42.6889V41.389C110.398 41.0936 110.378 40.8179 110.339 40.5619C110.319 40.3058 110.231 39.9316 110.073 39.4392L100.856 6.76523C100.659 6.13499 100.482 5.71155 100.324 5.4949C100.166 5.27826 99.9301 5.1207 99.615 5.02222L98.2265 4.63817C97.8917 4.52 97.6553 4.38214 97.5175 4.22458C97.3796 4.06702 97.3107 3.87007 97.3107 3.63373C97.3107 3.27922 97.4289 3.01333 97.6652 2.83608C97.9212 2.63913 98.2757 2.54065 98.7287 2.54065H112.289C112.761 2.54065 113.116 2.63913 113.352 2.83608C113.589 3.01333 113.707 3.27922 113.707 3.63373C113.707 3.88976 113.618 4.10641 113.441 4.28366C113.283 4.46092 113.037 4.59878 112.702 4.69726L110.782 5.05177C110.349 5.15024 110.083 5.34719 109.984 5.64262C109.906 5.93804 109.965 6.45011 110.162 7.17883L119.113 39.4983L116.927 41.3004L125.967 8.62641C126.243 7.66136 126.243 6.89325 125.967 6.32209C125.711 5.73124 125.09 5.28811 124.106 4.99268L122.629 4.66771C122.313 4.54954 122.087 4.41168 121.949 4.25412C121.811 4.09656 121.742 3.88976 121.742 3.63373Z" fill="white"/>
<path d="M149.789 40.3846V39.8528L149.287 39.8233V21.8614C149.287 20.4631 148.942 19.3897 148.253 18.6413C147.583 17.8732 146.628 17.4892 145.387 17.4892C144.205 17.4892 143.299 17.755 142.669 18.2868C142.058 18.8186 141.753 19.4488 141.753 20.1775V22.7477C141.753 23.8703 141.369 24.7566 140.601 25.4065C139.833 26.0565 138.779 26.3815 137.44 26.3815C136.317 26.3815 135.451 26.1057 134.84 25.5543C134.249 25.0028 133.954 24.2248 133.954 23.2204C133.954 22.0387 134.437 20.8767 135.402 19.7344C136.386 18.5724 137.824 17.6172 139.715 16.8688C141.625 16.1204 143.979 15.7462 146.775 15.7462C150.301 15.7462 152.92 16.4749 154.634 17.9323C156.367 19.37 157.233 21.3297 157.233 23.8113V39.1734C157.233 39.7642 157.352 40.1975 157.588 40.4732C157.824 40.749 158.139 40.8868 158.533 40.8868C158.947 40.8868 159.262 40.7883 159.479 40.5914C159.715 40.3747 159.902 40.1286 160.04 39.8528C160.139 39.7347 160.227 39.6362 160.306 39.5574C160.404 39.4786 160.523 39.4392 160.66 39.4392C160.857 39.4392 161.005 39.518 161.104 39.6756C161.202 39.8134 161.251 40.0005 161.251 40.2369C161.251 40.8277 161.035 41.458 160.601 42.1276C160.168 42.7972 159.508 43.3782 158.622 43.8706C157.736 44.3433 156.623 44.5796 155.284 44.5796C153.57 44.5796 152.221 44.2054 151.236 43.457C150.271 42.6889 149.789 41.6648 149.789 40.3846ZM132.654 37.8144C132.654 35.4313 133.698 33.511 135.786 32.0536C137.893 30.5962 140.906 29.8675 144.826 29.8675C146.086 29.8675 147.199 29.9758 148.164 30.1924C149.149 30.4091 150.005 30.6947 150.734 31.0492L150.173 32.5558C149.503 32.2407 148.814 31.9945 148.105 31.8173C147.416 31.64 146.657 31.5514 145.83 31.5514C144.254 31.5514 143.014 31.9945 142.108 32.8808C141.221 33.7474 140.778 34.9586 140.778 36.5145C140.778 38.0507 141.162 39.2226 141.93 40.0301C142.718 40.8376 143.733 41.2413 144.973 41.2413C145.978 41.2413 146.943 41.0148 147.869 40.5619C148.814 40.0892 149.602 39.4392 150.232 38.612L150.823 39.971C149.779 41.4481 148.381 42.5904 146.628 43.3979C144.895 44.1857 143.033 44.5796 141.044 44.5796C138.563 44.5796 136.544 43.9592 134.988 42.7185C133.432 41.458 132.654 39.8233 132.654 37.8144Z" fill="white"/>
<path d="M175.351 1.50667V39.8824C175.351 40.4141 175.43 40.808 175.587 41.0641C175.745 41.3201 175.981 41.4974 176.296 41.5958L177.537 41.8913C177.852 41.9897 178.079 42.1276 178.217 42.3049C178.374 42.4624 178.453 42.6692 178.453 42.9252C178.453 43.2207 178.345 43.457 178.128 43.6343C177.931 43.8115 177.606 43.9002 177.153 43.9002H165.454C165.021 43.9002 164.696 43.8115 164.479 43.6343C164.282 43.457 164.184 43.2207 164.184 42.9252C164.184 42.6889 164.253 42.4821 164.391 42.3049C164.548 42.1276 164.785 41.9897 165.1 41.8913L166.34 41.5958C166.675 41.4974 166.921 41.3201 167.079 41.0641C167.237 40.808 167.315 40.424 167.315 39.9119V6.02667C167.315 5.61307 167.246 5.31765 167.109 5.1404C166.99 4.94345 166.784 4.82527 166.488 4.78588L164.863 4.69726C164.548 4.63817 164.322 4.5397 164.184 4.40183C164.066 4.24427 164.007 4.04732 164.007 3.81098C164.007 3.55495 164.085 3.34815 164.243 3.19059C164.4 3.01333 164.696 2.85577 165.129 2.71791L171.304 0.620393C171.953 0.384052 172.456 0.226491 172.81 0.147712C173.184 0.0492374 173.5 0 173.756 0C174.287 0 174.681 0.137864 174.937 0.413593C175.213 0.689324 175.351 1.05368 175.351 1.50667Z" fill="white"/>
<path d="M183.886 43.9002C183.453 43.9002 183.137 43.8115 182.941 43.6343C182.763 43.457 182.675 43.2207 182.675 42.9252C182.675 42.6889 182.744 42.4821 182.881 42.3049C183.039 42.1276 183.275 41.9897 183.59 41.8913L184.861 41.5958C185.196 41.4974 185.442 41.3201 185.599 41.0641C185.757 40.808 185.836 40.424 185.836 39.9119V6.02667C185.836 5.61307 185.767 5.31765 185.629 5.1404C185.491 4.94345 185.284 4.82527 185.008 4.78588L183.354 4.69726C183.059 4.63817 182.842 4.5397 182.704 4.40183C182.586 4.24427 182.527 4.04732 182.527 3.81098C182.527 3.55495 182.606 3.34815 182.763 3.19059C182.921 3.01333 183.206 2.85577 183.62 2.71791L189.824 0.620393C190.434 0.403748 190.917 0.246187 191.272 0.147712C191.646 0.0492374 192 0 192.335 0C192.827 0 193.202 0.137864 193.458 0.413593C193.714 0.689324 193.842 1.05368 193.842 1.50667V39.8824C193.842 40.4141 193.92 40.808 194.078 41.0641C194.236 41.3201 194.482 41.4974 194.817 41.5958L196.028 41.8913C196.54 42.1079 196.796 42.4329 196.796 42.8662C196.796 43.5555 196.363 43.9002 195.496 43.9002H183.886ZM191.656 31.7582L203.62 21.5069C204.349 20.8767 204.664 20.2957 204.566 19.7639C204.467 19.2125 203.985 18.8284 203.118 18.6118L202.055 18.3459C201.739 18.2474 201.523 18.1292 201.405 17.9914C201.306 17.8338 201.257 17.6369 201.257 17.4005C201.257 17.0854 201.365 16.8392 201.582 16.662C201.818 16.4847 202.123 16.3961 202.498 16.3961H212.897C213.291 16.3961 213.596 16.4847 213.812 16.662C214.049 16.8392 214.167 17.0756 214.167 17.371C214.167 17.6467 214.068 17.8831 213.872 18.08C213.675 18.277 213.281 18.4444 212.69 18.5822C211.567 18.8186 210.553 19.1829 209.647 19.6753C208.761 20.1677 207.727 20.9161 206.545 21.9205L192.453 33.7671L191.656 31.7582ZM201.611 24.343L211.892 39.8233C212.325 40.4535 212.71 40.8967 213.044 41.1527C213.399 41.389 213.881 41.6057 214.492 41.8026C214.827 41.9602 215.073 42.1375 215.23 42.3344C215.408 42.5314 215.496 42.748 215.496 42.9843C215.496 43.2601 215.388 43.4866 215.171 43.6638C214.955 43.8214 214.649 43.9002 214.256 43.9002H202.025C201.69 43.9002 201.414 43.8115 201.198 43.6343C201.001 43.457 200.902 43.2207 200.902 42.9252C200.902 42.7283 200.952 42.5609 201.05 42.423C201.168 42.2655 201.365 42.1375 201.641 42.039L202.675 41.7731C203.207 41.6549 203.502 41.4383 203.561 41.1232C203.62 40.808 203.413 40.3058 202.941 39.6165L196.176 29.2766L201.611 24.343Z" fill="white"/>
<path d="M224.327 2.54065H246.277C246.927 2.54065 247.469 2.45203 247.902 2.27477C248.355 2.09752 248.749 1.93011 249.084 1.77255C249.438 1.59529 249.793 1.50667 250.147 1.50667C250.659 1.50667 251.044 1.63468 251.3 1.89072C251.575 2.14676 251.792 2.59974 251.949 3.24968L253.899 13.2055C253.998 13.6585 253.968 14.0327 253.811 14.3281C253.673 14.6235 253.407 14.8008 253.013 14.8599C252.659 14.9387 252.343 14.9091 252.068 14.7712C251.792 14.6334 251.556 14.3675 251.359 13.9736C250.275 11.4723 249.33 9.59146 248.523 8.33098C247.715 7.05081 246.908 6.18423 246.1 5.73124C245.312 5.27826 244.406 5.05177 243.382 5.05177H239.808V39.7347C239.808 40.1286 239.926 40.4437 240.162 40.68C240.398 40.9164 240.743 41.1035 241.196 41.2413L243.028 41.5958C243.717 41.8125 244.062 42.2162 244.062 42.8071C244.062 43.5358 243.589 43.9002 242.644 43.9002H227.991C227.518 43.9002 227.163 43.8017 226.927 43.6047C226.691 43.4078 226.572 43.1419 226.572 42.8071C226.572 42.2162 226.917 41.8125 227.606 41.5958L229.468 41.2413C229.921 41.1035 230.265 40.9164 230.502 40.68C230.738 40.4437 230.856 40.1286 230.856 39.7347V5.05177H227.252C226.248 5.05177 225.351 5.28811 224.564 5.76079C223.776 6.23347 222.968 7.10989 222.141 8.39007C221.334 9.65055 220.378 11.5117 219.275 13.9736C219.098 14.3675 218.862 14.6334 218.566 14.7712C218.291 14.9091 217.976 14.9387 217.621 14.8599C217.247 14.8008 216.981 14.6235 216.823 14.3281C216.686 14.0327 216.656 13.6585 216.735 13.2055L218.685 3.24968C218.842 2.59974 219.059 2.14676 219.335 1.89072C219.61 1.63468 219.994 1.50667 220.487 1.50667C220.841 1.50667 221.186 1.59529 221.521 1.77255C221.856 1.93011 222.24 2.09752 222.673 2.27477C223.106 2.45203 223.658 2.54065 224.327 2.54065Z" fill="white"/>
<path d="M268.563 1.50667V39.8824C268.563 40.4141 268.642 40.808 268.8 41.0641C268.957 41.3201 269.204 41.4974 269.538 41.5958L270.75 41.8913C271.262 42.1079 271.518 42.4329 271.518 42.8662C271.518 43.5555 271.084 43.9002 270.218 43.9002H258.696C258.243 43.9002 257.908 43.8115 257.692 43.6343C257.495 43.457 257.396 43.2207 257.396 42.9252C257.396 42.6889 257.465 42.4821 257.603 42.3049C257.761 42.1276 257.997 41.9897 258.312 41.8913L259.583 41.5958C259.917 41.4974 260.164 41.3201 260.321 41.0641C260.479 40.808 260.557 40.424 260.557 39.9119V6.02667C260.557 5.61307 260.489 5.31765 260.351 5.1404C260.213 4.94345 260.006 4.82527 259.73 4.78588L258.076 4.69726C257.78 4.63817 257.564 4.5397 257.426 4.40183C257.308 4.24427 257.249 4.04732 257.249 3.81098C257.249 3.55495 257.327 3.34815 257.485 3.19059C257.643 3.01333 257.928 2.85577 258.342 2.71791L264.546 0.620393C265.156 0.403748 265.639 0.246187 265.993 0.147712C266.367 0.0492374 266.722 0 267.057 0C267.549 0 267.923 0.137864 268.179 0.413593C268.435 0.689324 268.563 1.05368 268.563 1.50667ZM267.736 23.7817L266.643 22.6591L267.766 21.6547C270.11 19.5276 272.128 18.0111 273.822 17.1051C275.516 16.1991 277.121 15.7462 278.637 15.7462C280.922 15.7462 282.695 16.5044 283.955 18.0209C285.216 19.5177 285.994 21.5759 286.289 24.1953L288.062 39.7937C288.121 40.3452 288.219 40.7588 288.357 41.0345C288.514 41.3103 288.771 41.5072 289.125 41.6254L290.277 41.8913C290.592 42.0094 290.819 42.1571 290.957 42.3344C291.095 42.492 291.163 42.6889 291.163 42.9252C291.163 43.2207 291.065 43.457 290.868 43.6343C290.671 43.8115 290.346 43.9002 289.893 43.9002H278.224C277.338 43.9002 276.894 43.5555 276.894 42.8662C276.894 42.4329 277.16 42.1079 277.692 41.8913L278.933 41.5958C279.307 41.4974 279.583 41.3103 279.76 41.0345C279.937 40.7588 279.996 40.3452 279.937 39.7937L278.312 25.3179C278.116 23.6242 277.692 22.3637 277.042 21.5365C276.392 20.6896 275.427 20.2662 274.147 20.2662C273.339 20.2662 272.502 20.4828 271.636 20.9161C270.769 21.3297 269.853 21.9501 268.888 22.7773L267.736 23.7817Z" fill="white"/>
<path d="M319.811 26.9428C319.811 27.7896 319.565 28.4396 319.072 28.8926C318.6 29.3455 317.901 29.572 316.975 29.572H298.57V27.7404H310.505C311.352 27.7404 311.775 27.3465 311.775 26.5587C311.775 23.7423 311.303 21.6251 310.357 20.2071C309.412 18.789 308.171 18.08 306.635 18.08C305.434 18.08 304.38 18.4542 303.474 19.2026C302.568 19.951 301.859 21.0441 301.347 22.4818C300.835 23.8999 300.579 25.6429 300.579 27.7109C300.579 31.5711 301.455 34.4761 303.208 36.4259C304.981 38.356 307.324 39.3211 310.239 39.3211C312.051 39.3211 313.617 38.9272 314.936 38.1394C316.276 37.3319 317.251 36.2191 317.861 34.8011C318.117 34.4859 318.324 34.2693 318.482 34.1511C318.659 34.033 318.836 33.9739 319.013 33.9739C319.269 33.9739 319.456 34.092 319.575 34.3284C319.693 34.545 319.742 34.8208 319.722 35.1556C319.644 36.869 319.063 38.4446 317.979 39.8824C316.916 41.3201 315.468 42.4723 313.637 43.3388C311.805 44.1857 309.717 44.6092 307.374 44.6092C304.616 44.6092 302.174 44.038 300.047 42.8957C297.94 41.7337 296.285 40.1187 295.084 38.0507C293.882 35.9631 293.282 33.5307 293.282 30.7537C293.282 27.7995 293.863 25.1998 295.025 22.9545C296.187 20.6896 297.841 18.917 299.988 17.6369C302.154 16.3567 304.725 15.7166 307.699 15.7166C310.219 15.7166 312.386 16.1991 314.198 17.1642C316.01 18.1292 317.398 19.4587 318.363 21.1524C319.328 22.8265 319.811 24.7566 319.811 26.9428Z" fill="white"/>
<path d="M324.463 42.8074C324.463 42.2166 324.808 41.8128 325.497 41.5962L327.388 41.2417C327.841 41.1038 328.176 40.9167 328.393 40.6804C328.629 40.444 328.747 40.1289 328.747 39.735V6.73605C328.747 6.32246 328.629 5.99749 328.393 5.76115C328.176 5.52481 327.841 5.33771 327.388 5.19984L325.468 4.81579C324.798 4.61884 324.463 4.22494 324.463 3.63409C324.463 3.27958 324.582 3.0137 324.818 2.83644C325.054 2.63949 325.409 2.54102 325.881 2.54102H341.244C344.887 2.54102 348.196 3.07278 351.17 4.13631C354.144 5.19984 356.704 6.71636 358.851 8.68586C361.017 10.6554 362.682 12.9991 363.844 15.717C365.006 18.4152 365.587 21.4187 365.587 24.7274C365.587 28.5089 364.71 31.8373 362.957 34.7128C361.224 37.5883 358.752 39.8433 355.542 41.478C352.332 43.093 348.501 43.9005 344.05 43.9005H325.881C325.389 43.9005 325.025 43.802 324.788 43.6051C324.572 43.4081 324.463 43.1423 324.463 42.8074ZM343.371 41.5076C345.951 41.5076 348.206 40.8872 350.136 39.6464C352.066 38.4056 353.573 36.5247 354.656 34.0038C355.739 31.4631 356.281 28.2528 356.281 24.3729C356.281 21.3399 355.916 18.6318 355.188 16.2487C354.459 13.8459 353.405 11.8075 352.027 10.1334C350.648 8.43967 348.984 7.14965 347.034 6.26337C345.104 5.3771 342.918 4.93396 340.475 4.93396H337.698V39.1737C337.698 39.9812 337.925 40.5721 338.378 40.9463C338.831 41.3205 339.51 41.5076 340.416 41.5076H343.371Z" fill="white"/>
<path d="M419.626 41.5662C422.501 41.9798 424.766 42.5214 426.42 43.1911C428.095 43.841 429.286 44.6682 429.995 45.6726C430.704 46.6968 431.059 47.9179 431.059 49.3359C431.059 51.9947 429.67 54.1612 426.893 55.8353C424.136 57.529 420.148 58.3759 414.928 58.3759C411.442 58.3759 408.646 58.0903 406.538 57.5192C404.451 56.9677 402.944 56.1996 402.018 55.2149C401.112 54.2301 400.659 53.0977 400.659 51.8175C400.659 50.2616 401.398 48.9026 402.875 47.7406C404.352 46.5786 406.972 45.7613 410.733 45.2886L411.117 46.0567C409.66 46.293 408.547 46.7756 407.779 47.5043C407.031 48.2527 406.657 49.0799 406.657 49.9858C406.657 51.8372 407.375 53.3242 408.813 54.4468C410.251 55.5694 412.664 56.1307 416.051 56.1307C417.961 56.1307 419.508 55.9633 420.689 55.6285C421.891 55.2936 422.767 54.8013 423.319 54.1513C423.87 53.5211 424.146 52.753 424.146 51.847C424.146 51.138 423.89 50.5176 423.378 49.9858C422.866 49.4541 421.96 48.9716 420.66 48.5383C419.38 48.1247 417.568 47.7209 415.224 47.327C412.388 46.874 410.211 46.3915 408.695 45.8794C407.198 45.3674 406.164 44.7765 405.593 44.1069C405.022 43.4373 404.736 42.6298 404.736 41.6844C404.736 40.8572 404.963 40.0891 405.416 39.3801C405.888 38.6514 406.666 38.031 407.75 37.5189C408.853 36.9871 410.359 36.6129 412.27 36.3963L412.742 36.8099C412.191 37.0462 411.777 37.3121 411.502 37.6075C411.245 37.8833 411.117 38.1984 411.117 38.5529C411.117 38.868 411.275 39.1831 411.59 39.4983C411.925 39.7937 412.693 40.1088 413.894 40.4436C415.096 40.7587 417.006 41.1329 419.626 41.5662ZM428.754 26.2041C428.754 28.41 428.173 30.3598 427.011 32.0535C425.849 33.7473 424.225 35.0669 422.137 36.0122C420.069 36.9576 417.666 37.4303 414.928 37.4303C412.211 37.4303 409.857 36.9773 407.868 36.0713C405.898 35.1457 404.372 33.895 403.289 32.3194C402.225 30.7438 401.693 28.991 401.693 27.0609C401.693 24.855 402.265 22.9052 403.407 21.2115C404.549 19.5177 406.164 18.1981 408.252 17.2528C410.359 16.2877 412.811 15.8052 415.608 15.8052C418.326 15.8052 420.66 16.268 422.609 17.1937C424.579 18.1193 426.096 19.37 427.159 20.9456C428.223 22.5015 428.754 24.2543 428.754 26.2041ZM414.131 17.8732C413.087 17.9519 412.22 18.3458 411.531 19.0549C410.861 19.7442 410.389 20.7289 410.113 22.0091C409.857 23.2696 409.827 24.8058 410.024 26.6177C410.221 28.4888 410.596 30.084 411.147 31.4036C411.718 32.7035 412.437 33.6882 413.304 34.3579C414.17 35.0078 415.145 35.3032 416.228 35.2441C417.804 35.126 418.956 34.3185 419.685 32.8217C420.413 31.3248 420.63 29.2175 420.335 26.4996C420.039 23.6832 419.34 21.5167 418.237 20.0002C417.154 18.4837 415.785 17.7747 414.131 17.8732Z" fill="white"/>
<path d="M383.387 15.4941C386.321 15.4941 388.901 16.1047 391.127 17.3258C393.372 18.5469 395.125 20.2505 396.385 22.4366C397.646 24.6031 398.276 27.124 398.276 29.9995C398.276 32.7371 397.626 35.1891 396.326 37.3556C395.046 39.522 393.264 41.2355 390.979 42.496C388.714 43.7368 386.085 44.3572 383.091 44.3572C380.157 44.3572 377.567 43.7466 375.321 42.5255C373.096 41.2847 371.353 39.5811 370.092 37.4147C368.852 35.2285 368.231 32.7174 368.231 29.8813C368.231 27.1043 368.871 24.6326 370.151 22.4662C371.451 20.2997 373.234 18.5961 375.499 17.3553C377.783 16.1145 380.413 15.4941 383.387 15.4941ZM385.336 41.8756C386.656 41.6786 387.719 41.0681 388.527 40.044C389.334 39.0001 389.846 37.5525 390.063 35.7012C390.299 33.8499 390.201 31.6047 389.768 28.9655C389.334 26.3461 388.704 24.1895 387.877 22.4957C387.05 20.8019 386.065 19.571 384.923 18.8029C383.78 18.0348 382.53 17.7591 381.171 17.9757C379.851 18.1727 378.788 18.7931 377.98 19.8369C377.173 20.8807 376.661 22.3283 376.444 24.1796C376.227 26.0113 376.326 28.2368 376.739 30.8562C377.173 33.456 377.803 35.6126 378.63 37.326C379.477 39.0198 380.472 40.2508 381.614 41.0189C382.756 41.787 383.997 42.0725 385.336 41.8756Z" fill="white"/>
<path d="M425.373 11.8157C423.83 13.0867 421.264 16.2453 420.282 17.8359C421.094 18.2898 422.812 19.1105 423.188 18.7621C423.657 18.3266 424.528 17.7269 425.659 17.1974C426.426 16.8387 426.865 16.666 427.339 16.4229C427.984 16.0918 428.669 16.4273 429.161 16.915C429.351 17.1026 430.556 17.9955 431.71 18.3508C432.695 18.6541 433.722 19.0288 434.199 18.9028C435.007 18.6896 435.066 18.1107 435.058 17.8029C435.04 17.1105 434.934 15.843 434.068 13.7866C433.203 11.7301 431.508 10.4726 429.944 10.0046C428.977 9.71491 426.82 10.6237 425.373 11.8157Z" fill="white"/>
<path d="M405.689 12.1655C406.982 13.3874 409.069 16.347 409.844 17.8185C409.095 18.1722 407.521 18.7967 407.209 18.4647C406.819 18.0497 406.082 17.4645 405.109 16.9259C404.45 16.561 404.071 16.3811 403.665 16.1365C403.112 15.8035 402.484 16.0598 402.017 16.4629C401.838 16.618 400.714 17.3376 399.667 17.5831C398.774 17.7926 397.84 18.063 397.424 17.9223C396.721 17.6841 396.703 17.1666 396.729 16.8939C396.787 16.2802 396.958 15.1614 397.851 13.3883C398.744 11.6151 400.325 10.6014 401.741 10.2807C402.618 10.0822 404.477 11.0197 405.689 12.1655Z" fill="white"/>
</svg>
